<svg xmlns="http://www.w3.org/2000/svg" xmlns:xlink="http://www.w3.org/1999/xlink" width="402.35" height="313.41" viewBox="0 0 402.35 313.41">
  <defs>
    <style>
      .cls-1 {
        fill: none;
      }

      .cls-2 {
        isolation: isolate;
      }

      .cls-3 {
        clip-path: url(#clip-path);
      }

      .cls-4 {
        fill: #0c4c29;
      }

      .cls-5, .cls-6 {
        mix-blend-mode: multiply;
        opacity: 0.43;
      }

      .cls-5 {
        fill: url(#linear-gradient);
      }

      .cls-6 {
        fill: url(#linear-gradient-2);
      }

      .cls-7 {
        fill: #c34804;
        stroke: #7c320d;
      }

      .cls-11, .cls-22, .cls-7, .cls-8 {
        stroke-miterlimit: 10;
      }

      .cls-8 {
        fill: #fcf200;
        stroke: #a89c0b;
      }

      .cls-9 {
        fill: #fec119;
      }

      .cls-10 {
        fill: #f2a905;
      }

      .cls-11 {
        fill: #ff7e2a;
        stroke: #af440e;
      }

      .cls-12 {
        fill: #fb6010;
      }

      .cls-13 {
        fill: #fde664;
      }

      .cls-14 {
        fill: #febe42;
      }

      .cls-15 {
        fill: #ff631e;
      }

      .cls-16 {
        fill: #dc0604;
      }

      .cls-17 {
        fill: #8c0606;
      }

      .cls-18 {
        fill: #f9f2f2;
      }

      .cls-19 {
        fill: #683c3c;
      }

      .cls-20 {
        fill: #30252b;
      }

      .cls-21 {
        fill: #fff;
      }

      .cls-22 {
        fill: #d10409;
        stroke: #a30814;
      }

      .cls-23 {
        fill: #ffe632;
      }

      .cls-24 {
        fill: #ffd713;
      }

      .cls-25 {
        fill: #fd1441;
      }
    </style>
    <clipPath id="clip-path">
      <rect class="cls-1" x="-2238.88" y="326.76" width="1280" height="720"/>
    </clipPath>
    <linearGradient id="linear-gradient" x1="7187.4" y1="-1844.31" x2="7298.16" y2="-1406.08" gradientTransform="matrix(-0.77, 0.07, 0.01, 0.99, 5327.04, 1204.1)" gradientUnits="userSpaceOnUse">
      <stop offset="0" stop-color="#96880c"/>
      <stop offset="0.31" stop-color="#002405"/>
      <stop offset="0.62" stop-color="#000b00"/>
      <stop offset="1" stop-color="#596b00"/>
    </linearGradient>
    <linearGradient id="linear-gradient-2" x1="3734.47" y1="-1886.69" x2="3820.08" y2="-1547.97" gradientTransform="matrix(0.77, 0.07, -0.01, 0.99, -3347.96, 1204.1)" xlink:href="#linear-gradient"/>
  </defs>
  <g class="cls-2">
    <g id="Layer_1" data-name="Layer 1">
      <g class="cls-3">
        <g>
          <g>
            <path class="cls-4" d="M-1126.74,79.74c9.3-15.83,53.89-10.44,100,11.88-14.17-15.53-19.91-31.5-12.78-36.17,6.32-4.22,20.8,2,34.41,13.94a169.61,169.61,0,0,1-7.13-18c-13.09-39.89-7.93-74.61,11.53-77.63,17.72-2.77,41.1,21.86,55,56.4C-943,1.5-930-19.42-915.08-17.86c.63.11,1.17.27,1.71.38-27.27-36.08-36-71.34-19.16-80.33,17.62-9.43,56.65,13.55,87,51.34a7.72,7.72,0,0,0,1.19,1.4c-1-3.14-1.77-6.46-2.57-9.72-11.15-49.07-.67-90.33,23.5-92.28,18.22-1.42,39.07,20.21,53,52.12l-.07-.38c-2.5-32.34,8.54-58.16,24.66-57.65,9,.23,17.79,8.8,24.11,22,1-4.09,3-7,6.32-8,5.69-1.7,13.69,2.55,21.32,10.35-.43-14.23,4.21-24.91,11.94-25.2,4.13-.17,8.53,2.76,12.3,7.67-12.26-27.77-12.13-51.83,1.45-56.32,10.51-3.37,26.26,5.72,40.79,22.09-2.62-25.3,5.06-45.46,17.77-45.6,7.64-.11,15.38,6.81,21.32,17.7-.74-22,6.49-38.45,18.19-38.8s24.21,15.83,30.47,37.92a82.35,82.35,0,0,1,6.73-15.69c12-21.86,31.13-35.35,42.68-30.17,2.25-16.81,9.67-28.51,19.55-28.34,9.66.21,19.08,11.78,24.56,28.29,2-10.68,7-17.81,13.58-17.69,6.24.11,12.26,6.86,16.31,16.8,5.7-.49,14.1,3.78,22.69,11.08-8.08-16.06-8.94-29.19-.76-32.72s23.59,3.85,38.54,17.55c5.88-8.47,32.73-3.58,59.94,11A160,160,0,0,1-278.16-238c-9.4-16.82-12.32-31.71-7.85-38.94l28.5,3.16A112.67,112.67,0,0,1-235.8-254c-2.12-7.2-2.37-13.29-.63-17.44l31,3.43a121.2,121.2,0,0,1,24.63,24.37c-.07-8.45,1.22-15.66,3.62-21.24l41.09,4.55a116,116,0,0,1,17.89,31.38c-.56-5.56.93-9.54,4.64-10.8,6.81-2.44,19,5,29.76,17.4.46-9.34,4-15.7,10.18-16.22,3.59-.32,7.56,1.44,11.49,4.61-2.53-7.29-3.36-13.61-2.46-18.46l44.21,4.83a162.17,162.17,0,0,1,27.66,27.4l.15.14A127.8,127.8,0,0,1,.1-245.34q43.5,4.77,87,9.52A236.11,236.11,0,0,1,103.92-212c2,3.08,3.73,6.16,5.4,9.29,0,0,0-1.14-.09-1.71a134.89,134.89,0,0,1,.8-28.91q37.8,4.15,75.61,8.27a150.07,150.07,0,0,1,4.18,22,4.13,4.13,0,0,1,1-.88c11.66-6.62,39,6.85,63.44,30.47-7.43-17.26-10.87-33.18-10.3-45.24l61.47,6.71a178.28,178.28,0,0,1,22.12,33.66,176.21,176.21,0,0,1,7.83,17.93c2.41-15,10-25.27,18.66-23.88,9.68,1.54,17.14,17.18,17,35.33,22.16-35,56.25-55,76.48-44.68,18.85,9.63,19,42.24,1.44,75.3,14.41-15.3,31.62-22.69,42.45-17,13.59,7.2,12,32.17-3.45,55.75a24.68,24.68,0,0,1-2,2.88c.64-.27,1.19-.48,1.19-.48,34.51-11.19,68.57-9.72,76.86,3,7.18,11.09-7.66,27.13-34,38.36,28.35-3.31,53.93,1.93,58.17,12.4,3.68,9-9.73,19-31.41,24.71C573.27,8.12,584.22,16.7,583,23.22c-1,5.09-9.27,7.67-21.12,7.57,24.49,9.18,41.27,22,39.12,30.77s-21.87,10.59-46.44,5.54c36.49,20.3,59.32,44.89,51.88,57.22-6,10.08-30.6,9.05-60.34-1,22.23,12.68,35.6,26.71,32,35.76-4.6,11.5-35,10.78-69.7-1,.44.47.83.88,1.19,1.33,20.28,24.36,27.55,48.42,16.26,53.87-9.14,4.35-27.62-4.8-45.1-21.25a101,101,0,0,1,1.46,13.92c1.26,31.81-11.42,56.09-28,54.22-14.66-1.68-27.52-22.71-31.34-49.23a76.27,76.27,0,0,1-8.68,10.67c-16,16.26-36.91,23.89-46.61,17.09-7-4.87-6.37-15.7.19-27.38-18.75,5-36.15,3.72-41.23-3.46-3.46-5-.23-11.58,7.5-17.84-17.49,2.71-33,.28-36.58-6.36l-.08-.13c-12.25,9.73-25.57,13.74-33.25,8.94-5.1-3.17-6.69-9.68-5.05-17.55-7.77,12.8-18.26,19.94-27.5,17.06-9.47-2.89-14.87-15.76-14.44-31.75-3.68,7.79-9.23,12.25-15.59,11.57-11.87-1.29-22.31-20.28-23.72-42.81-1.65,1.84-3.43,3.6-5.21,5.44-23.2,22-52.75,31.82-66.06,22.07-4.45-3.32-6.43-8.48-6.33-14.75-4,3.68-8.33,5.4-12.49,4.31a11.6,11.6,0,0,1-4.57-2.5c3,13.76.73,24-7.06,25.78-6.93,1.54-16.59-4-25.85-13.81,3.42,21-1.44,36.78-12.92,37.84-7.81.6-17.07-5.68-25.3-16.15-1.74,4.41-4.64,7.09-8.63,7.46-3.29.28-7-1.1-10.6-3.8,4.83,15.16,3.42,26.94-4.86,29.4s-21.39-4.84-33.72-17.66c-.54,9.26-3.93,15.69-9.49,16.7,14.22,21.75,18.05,40.35,7.6,46.43-8.79,5.13-25.73.16-44.48-11.66,4.23,18.38.27,33.07-9.24,33.5-7.66.36-16.79-8.74-23-21.91-1,2.45-43.78-11.37-44.88-9.3,0,0-23,52.62-38,53.93-12.43,1.1-38.95-39.82-38.95-39.82-2.52-1.29-41,7.79-43.65,6.05,4.82,13.45,4.06,24.4-2.83,26.77-8.44,2.88-23.18-8.41-33.78-25.53-6.91,16.57-17.53,26.66-29.08,25.38-13.58-1.6-24.72-18.81-29.36-42.38-5.5,1.08-13.35-3.28-21.05-11-.63,15.22-6.13,26-15.13,26.82s-19.27-8.84-26.94-23.56c-1,3.58-3,6.08-6.11,6.94-3.63,1.08-8.34-.24-13.12-3.39,1,11.82-2,20.41-9.26,22.55-10.56,3.13-27-8.72-40.23-27.89-.4,11.53-4.39,19.68-11.45,20.78-8.08,1.21-18-6.81-26-19.66a6.08,6.08,0,0,1-1.94,3.71c-2.83,2.38-7.9,2.48-14.14.67,5,5.24,7.29,10.43,6,14.8-3.81,12.94-36.76,14.68-73.57,3.91-2.93-.88-5.77-1.83-8.69-2.78,16.26,19.69,22,39.55,12.81,44.84-4.88,2.81-13.13.74-22.33-4.58,12.69,13.54,18.08,26.46,12.23,32.24-5.68,5.58-20.23,3.09-36.72-5.18,7.46,6.22,11.1,12.31,9.21,16.83-2.85,6.72-17.4,7.94-35.46,3.71l.16.26c2.05,6.92-9.32,14.39-26.39,18.08,11.34,2.71,19.26,7.26,20.14,12.66,1.22,7.93-12.78,15-32.58,17.29,14.63,7.7,23.47,16.78,21.32,23.29-3.1,9.21-26.89,9.88-53.13,1.46A128.49,128.49,0,0,1-793,417.44c17.26,24,22.48,46.56,11.32,53-12.94,7.43-42.41-9.06-66-36.67-3.5-4.12-6.68-8.3-9.54-12.44-2.24,20.14-10.92,34.31-22.12,33.75-13.92-.69-26.29-23.83-27.72-51.68a13.9,13.9,0,0,0,0-1.58c-20.64,22.18-46.09,33.28-58.85,25-10-6.44-9.57-23.13-.24-41.66-17.68,18.92-37.94,28.23-50.92,21.77-15.88-8-15.39-37,.18-67-17.12,12.8-35.41,17.92-44,11.31-8.68-6.8-4.25-23.59,9.66-39.87-10.14,4.22-19.13,4.87-24,.84-6-5.18-3.39-16.31,5.58-27.77-23,2.66-42.34-1.28-46.18-10.33-4.33-10.4,13.44-23.73,40.3-30.71-31.22-.53-56.28-9.13-58.74-21.11-2.79-13.75,25.32-26.75,62.83-29.07l2-.05c-1.37-.6-2.6-1.12-3.91-1.77-31.48-14.88-52-35.67-46-46.51,4.88-8.66,25.35-8.29,49.42-.2C-1110.41,122.49-1135.53,94.48-1126.74,79.74Z"/>
            <path class="cls-5" d="M-1134.21,222.29c-1.5-7.2,5.64-14.25,18.17-19.57,8.53,3,21.27,3.88,35.44,2.26-9,11.46-11.6,22.58-5.58,27.71,4.76,4,13.89,3.38,24-.78-13.84,16.28-18.35,33.07-9.67,39.87,8.46,6.6,26.83,1.49,43.94-11.37-15.49,30.06-16,59-.17,67,13,6.53,33.16-2.79,50.92-21.7-9.33,18.53-9.86,35.21.25,41.66,12.82,8.22,38.21-2.89,58.82-25a12.6,12.6,0,0,0,.11,1.58c1.35,27.86,13.72,50.93,27.56,51.68,11.28.51,20.05-13.67,22.27-33.75a155.89,155.89,0,0,0,9.53,12.39c23.51,27.65,53.07,44.09,65.84,36.71,11.24-6.46,6-28.92-11.16-52.95a129,129,0,0,0,15.65,6.08c26.3,8.43,50.1,7.76,53.12-1.46,2.15-6.57-6.68-15.59-21.33-23.3,19.89-2.3,33.9-9.4,32.58-17.22-.87-5.45-8.79-10.07-20.2-12.73,17-3.75,28.43-11.16,26.45-18.07a.41.41,0,0,0-.06-.19c18,4.1,32.59,3,35.45-3.78,1.89-4.52-1.84-10.61-9.29-16.77,16.49,8.27,31,10.7,36.72,5.12,5.86-5.83.45-18.7-12.17-32.24,9.13,5.39,17.32,7.32,22.26,4.52,9.18-5.23,3.37-25.1-12.72-44.84,2.76,1,5.6,1.88,8.61,2.78,36.8,10.83,69.75,9.09,73.56-3.85,1.27-4.44-1-9.55-5.94-14.85,6.24,1.8,11.31,1.77,14-.63a6.1,6.1,0,0,0,2-3.7c8,12.85,17.93,20.88,25.92,19.65,7.21-1.08,11.13-9.18,11.45-20.78,13.32,19.12,29.74,31,40.31,27.85,7.18-2.16,10.17-10.76,9.18-22.51,4.94,3.16,9.56,4.48,13.19,3.4,3.08-.92,5-3.36,6.2-6.93,7.58,14.71,17.8,24.25,26.86,23.48s14.58-11.46,15.2-26.81c7.55,7.8,15.56,12.17,21.06,11,4.49,23.55,15.62,40.82,29.35,42.43,11.48,1.34,22.09-8.81,29-25.38,10.61,17.12,25.41,28.42,33.87,25.53,6.79-2.37,7.56-13.32,2.73-26.77,2.74,1.75,41.13-7.35,43.72-6,0,0,26.46,40.85,38.9,39.74,15-1.31,37.9-53.87,37.9-53.87,1.24-2,44,11.76,45,9.31,6.25,13.11,15.38,22.27,23,21.91,9.53-.43,13.4-15.19,9.24-33.5,18.77,11.76,35.62,16.79,44.49,11.66,10.45-6.08,6.7-24.67-7.61-46.5,5.49-.88,8.95-7.37,9.49-16.69,12.41,12.89,25.44,20.18,33.72,17.72s9.7-14.18,4.79-29.4c3.7,2.64,7.31,4.08,10.67,3.8,4-.36,6.91-3,8.66-7.46,8.21,10.48,17.45,16.75,25.26,16.09,11.51-1,16.36-16.81,13-37.77,9.19,9.73,18.85,15.34,25.77,13.8,7.86-1.73,10.15-12,7-25.79a11.57,11.57,0,0,0,4.5,2.5c4.25,1.1,8.68-.61,12.65-4.3C89,68.47,91.05,73.69,95.58,77c7.42,5.46,20,4.74,33.71-.81-12.65-5.19-20.4-11.8-19.83-18.36,1.08-11,25.57-17.44,55.72-15.23-30.66-10.54-51.11-26.68-47.36-38.48,4.38-13.6,38.86-16.5,77.25-6.44.69.18,1.32.41,2,.58-1-.94-2-1.89-2.93-2.9-23.57-23.89-33.26-49.79-21.63-57.81,9.23-6.41,29.27.59,49,15.92-28.7-33.66-39.15-67.65-23-78.44,17.39-11.52,58.9,7.92,93,43.46-6-19-3.54-35.49,6-37.49,8.42-1.82,19.6,8.55,26.91,24a134,134,0,0,1,2.18-19c5.72-31,20.29-55.92,36.08-64.66,5.11,6.44,8.48,17.46,8.37,29.65a132.25,132.25,0,0,1,20.18-24.78c10.27,11.81,15.08,35.19,12.19,61.83,17.42-25.54,41.1-40.66,55.18-34.3l.9.62A122.35,122.35,0,0,1,449-118.29c14.41-15.3,31.62-22.69,42.45-17,13.59,7.2,12,32.17-3.45,55.75a24.68,24.68,0,0,1-2,2.88c.64-.27,1.19-.48,1.19-.48,34.51-11.19,68.57-9.72,76.86,3,7.18,11.09-7.66,27.13-34,38.36,28.35-3.31,53.93,1.93,58.17,12.4,3.68,9-9.73,19-31.41,24.71C573.27,8.12,584.22,16.7,583,23.22c-1,5.09-9.27,7.67-21.12,7.57,24.49,9.18,41.27,22,39.12,30.77s-21.88,10.59-46.44,5.54c4.95,2.79,9.66,5.62,14.06,8.49,1.52,1,3,2,4.48,3l2,1.46c1.13.77,2.2,1.53,3.25,2.29.68.56,1.44,1.11,2.12,1.66,1,.69,1.88,1.43,2.79,2.13.67.55,1.43,1.16,2,1.64.9.76,1.73,1.45,2.55,2.19l1.81,1.63,2.41,2.17c.52.54,1,1,1.57,1.55.75.74,1.57,1.55,2.24,2.35.45.47.82.87,1.27,1.28,1,1.19,2.09,2.4,3,3.52l.29.34c.83,1.06,1.63,2.12,2.3,3.17a5.64,5.64,0,0,1,.72,1.12c.53.79,1,1.51,1.4,2.23a10.34,10.34,0,0,0,.57,1.23c.36.65.64,1.3.94,2a9.41,9.41,0,0,0,.49,1.22c.12.64.34,1.22.47,1.79,0,0,.21.83.26,1.21,0,0,.11,1.15.17,1.72a4.78,4.78,0,0,1,0,1,6.57,6.57,0,0,1-.22,1.74l0,.57a11.71,11.71,0,0,1-1.13,2.57c-6,10.08-30.6,9.05-60.34-1,22.23,12.68,35.6,26.71,32,35.76-4.6,11.5-35,10.78-69.7-1,.44.47.83.88,1.19,1.33,20.28,24.36,27.55,48.42,16.26,53.87-9.14,4.35-27.62-4.8-45.1-21.25a101,101,0,0,1,1.46,13.92c1.26,31.81-11.42,56.09-28,54.22-14.66-1.68-27.52-22.71-31.34-49.23a76.27,76.27,0,0,1-8.68,10.67c-16,16.26-36.91,23.89-46.61,17.09-7-4.87-6.37-15.7.19-27.38-18.75,5-36.15,3.73-41.23-3.46-3.46-5-.23-11.58,7.5-17.84-17.49,2.71-33,.28-36.58-6.36l-.08-.13c-12.25,9.73-25.57,13.74-33.25,8.95-5.1-3.18-6.69-9.69-5.05-17.56-7.77,12.8-18.26,19.94-27.5,17.06-9.47-2.89-14.87-15.76-14.44-31.75-3.68,7.79-9.23,12.25-15.59,11.57-11.87-1.29-22.31-20.28-23.72-42.81-1.65,1.84-3.43,3.6-5.21,5.44-2.12,2-4.3,3.79-6.55,5.59-.41.34-.73.64-1.13,1-2.26,1.8-4.51,3.47-6.75,5l-.33.29c-19.79,13.31-40.63,18.07-51.3,10.25-4.45-3.32-6.43-8.48-6.33-14.75-4,3.68-8.33,5.4-12.49,4.31a11.6,11.6,0,0,1-4.57-2.5c3,13.76.73,24-7.06,25.78-6.93,1.54-16.59-4-25.85-13.81,3.42,21-1.44,36.79-12.92,37.84-7.81.6-17.07-5.68-25.3-16.15-1.74,4.41-4.64,7.09-8.63,7.46-3.29.28-7-1.1-10.6-3.8,4.83,15.16,3.42,26.94-4.86,29.4s-21.39-4.84-33.72-17.66c-.54,9.26-3.93,15.69-9.49,16.7,14.22,21.75,18.05,40.35,7.6,46.43-8.79,5.13-25.73.16-44.48-11.66,4.23,18.38.27,33.07-9.24,33.5-7.66.36-16.79-8.74-23-21.91-1,2.45-43.78-11.37-44.88-9.3,0,0-23,52.62-38,53.93-12.43,1.1-38.95-39.82-38.95-39.82-2.52-1.29-41,7.79-43.65,6.05,4.82,13.45,4.06,24.4-2.83,26.77-8.44,2.88-23.18-8.41-33.78-25.53-6.91,16.57-17.53,26.66-29.08,25.38-13.58-1.6-24.72-18.81-29.36-42.38-5.5,1.08-13.35-3.28-21.05-11-.63,15.22-6.13,26-15.13,26.82s-19.27-8.84-26.94-23.56c-1,3.58-3,6.08-6.11,6.94-3.63,1.08-8.34-.24-13.12-3.39,1,11.82-2,20.41-9.26,22.55-10.56,3.13-27-8.72-40.23-27.89-.4,11.53-4.39,19.68-11.45,20.78-8.08,1.21-18-6.81-26-19.66a6.08,6.08,0,0,1-1.94,3.71c-2.83,2.38-7.9,2.48-14.14.67,5,5.24,7.29,10.43,6,14.8-3.81,12.94-36.76,14.68-73.57,3.91-2.93-.88-5.77-1.83-8.69-2.78,16.25,19.69,22,39.55,12.81,44.84-4.88,2.81-13.13.74-22.33-4.58,12.69,13.54,18.08,26.46,12.23,32.24-5.68,5.58-20.23,3.09-36.72-5.18,7.46,6.22,11.1,12.31,9.21,16.83-2.85,6.72-17.4,7.94-35.46,3.71l.16.26c2.05,6.92-9.32,14.39-26.39,18.08,11.34,2.71,19.26,7.26,20.14,12.66,1.22,7.93-12.78,15-32.58,17.29,14.63,7.7,23.47,16.78,21.32,23.29-3.1,9.21-26.89,9.88-53.13,1.46A128.49,128.49,0,0,1-793,417.44c17.26,24,22.48,46.56,11.32,53-12.94,7.43-42.41-9.06-66-36.67-3.5-4.12-6.68-8.3-9.54-12.44-2.24,20.14-10.92,34.31-22.12,33.75-13.92-.69-26.29-23.83-27.72-51.68a13.9,13.9,0,0,0,0-1.58c-20.64,22.18-46.09,33.28-58.85,25-10-6.44-9.57-23.13-.24-41.66-17.68,18.92-37.94,28.23-50.92,21.77-15.95-8-15.39-37,.18-67-17.12,12.8-35.41,17.92-44,11.31-8.68-6.8-4.25-23.59,9.66-39.87-10.14,4.22-19.13,4.87-24,.84-6-5.18-3.39-16.31,5.58-27.77-23,2.66-42.34-1.28-46.18-10.33-4.33-10.4,13.44-23.73,40.3-30.71C-1106.69,242.87-1131.75,234.27-1134.21,222.29Z"/>
          </g>
          <g>
            <path class="cls-4" d="M244.43-253.14c-7.19-12.24-41.65-8.07-77.27,9.18,11-12,15.39-24.35,9.88-28-4.88-3.26-16.08,1.52-26.59,10.78A131.53,131.53,0,0,0,156-275.07c10.12-30.83,6.13-57.66-8.91-60-13.7-2.15-31.77,16.89-42.48,43.59-2.12-22.15-12.18-38.32-23.74-37.11-.49.09-.9.21-1.32.29,21.08-27.88,27.79-55.14,14.8-62.08C80.7-397.67,50.53-379.9,27-350.7a5.72,5.72,0,0,1-.91,1.09c.75-2.43,1.36-5,2-7.52,8.62-37.92.52-69.81-18.16-71.32-14.08-1.1-30.2,15.62-40.93,40.28l0-.29c1.93-25-6.6-45-19.06-44.56-7,.18-13.75,6.81-18.64,17-.73-3.16-2.33-5.43-4.88-6.18-4.4-1.31-10.59,2-16.48,8,.33-11-3.26-19.25-9.23-19.48-3.19-.12-6.59,2.14-9.51,5.94,9.48-21.47,9.38-40.06-1.12-43.54-8.12-2.6-20.3,4.43-31.53,17.08,2-19.56-3.91-35.14-13.73-35.25-5.91-.09-11.89,5.26-16.48,13.68.57-17-5-29.72-14.06-30s-18.71,12.24-23.55,29.31a63.8,63.8,0,0,0-5.2-12.13c-9.3-16.89-24.06-27.32-33-23.32-1.74-13-7.47-22-15.11-21.9-7.46.16-14.75,9.1-19,21.87-1.55-8.26-5.45-13.77-10.5-13.67-4.82.08-9.48,5.3-12.61,13-4.4-.38-10.89,2.92-17.53,8.57,6.24-12.42,6.9-22.56.59-25.3s-18.24,3-29.8,13.57c-4.54-6.54-25.29-2.77-46.33,8.51a121.82,121.82,0,0,0-13.79,8.55c7.27-13,9.52-24.51,6.07-30.1l-22,2.44A87,87,0,0,0-444.2-511.1c1.64-5.56,1.83-10.27.49-13.48l-23.94,2.65a93.51,93.51,0,0,0-19,18.84c.05-6.54-.94-12.11-2.8-16.42L-521.25-516a89.84,89.84,0,0,0-13.82,24.25c.43-4.29-.72-7.37-3.59-8.35-5.26-1.88-14.72,3.9-23,13.45-.36-7.22-3.09-12.13-7.87-12.53-2.77-.25-5.84,1.11-8.88,3.56,1.95-5.63,2.59-10.52,1.9-14.27q-17.1,1.89-34.17,3.74A125,125,0,0,0-632.06-485l-.12.11a98.35,98.35,0,0,0,5.64-19.55q-33.62,3.71-67.26,7.36a184.51,184.51,0,0,0-13,18.42c-1.54,2.38-2.88,4.76-4.17,7.18,0,0,0-.88.06-1.32a104.81,104.81,0,0,0-.61-22.34l-58.45,6.39a115.9,115.9,0,0,0-3.22,17,3.26,3.26,0,0,0-.81-.68c-9-5.12-30.15,5.29-49,23.56,5.74-13.35,8.4-25.65,8-35q-23.76,2.6-47.51,5.19a138,138,0,0,0-17.1,26,134.8,134.8,0,0,0-6.05,13.85c-1.86-11.57-7.73-19.53-14.43-18.45-7.48,1.19-13.25,13.28-13.16,27.31-17.13-27.06-43.47-42.53-59.11-34.53-14.58,7.43-14.68,32.64-1.11,58.19-11.14-11.82-24.45-17.53-32.82-13.13-10.5,5.56-9.28,24.86,2.67,43.08a18.45,18.45,0,0,0,1.54,2.23l-.92-.37c-26.68-8.65-53-7.51-59.41,2.34-5.55,8.58,5.92,21,26.27,29.65-21.91-2.56-41.68,1.5-45,9.58-2.86,6.95,7.52,14.69,24.27,19.1-12.69,5.23-21.15,11.86-20.22,16.9.77,3.93,7.17,5.93,16.33,5.85-18.93,7.1-31.9,17-30.23,23.78s16.9,8.19,35.89,4.29c-28.21,15.69-45.85,34.7-40.1,44.22,4.65,7.8,23.65,7,46.64-.76-17.19,9.8-27.52,20.64-24.7,27.64,3.55,8.89,27,8.33,53.87-.8-.34.36-.64.67-.92,1-15.68,18.82-21.3,37.42-12.57,41.63,7.07,3.36,21.35-3.71,34.86-16.42a78.89,78.89,0,0,0-1.13,10.76c-1,24.58,8.83,43.35,21.66,41.9,11.33-1.29,21.27-17.55,24.23-38a58.55,58.55,0,0,0,6.71,8.25c12.38,12.56,28.52,18.47,36,13.21,5.39-3.77,4.92-12.14-.15-21.17,14.49,3.84,27.94,2.88,31.87-2.67,2.67-3.83.18-9-5.8-13.79,13.52,2.1,25.54.22,28.28-4.91l.06-.11c9.47,7.53,19.76,10.62,25.7,6.92,3.94-2.45,5.17-7.49,3.9-13.57,6,9.89,14.12,15.42,21.25,13.19,7.33-2.24,11.5-12.19,11.17-24.54,2.84,6,7.13,9.47,12,8.94,9.17-1,17.24-15.67,18.33-33.09,1.28,1.42,2.65,2.79,4,4.2,17.93,17,40.77,24.6,51.06,17.06,3.44-2.56,5-6.55,4.89-11.4,3.06,2.85,6.44,4.18,9.65,3.34a9.13,9.13,0,0,0,3.54-1.94c-2.34,10.64-.57,18.59,5.45,19.93,5.36,1.19,12.82-3.1,20-10.68-2.64,16.26,1.11,28.43,10,29.25,6,.47,13.19-4.39,19.56-12.48,1.34,3.4,3.58,5.48,6.66,5.76,2.55.22,5.39-.85,8.19-2.93-3.72,11.72-2.63,20.82,3.77,22.72S-600.57-156-591-165.92c.41,7.16,3,12.13,7.33,12.91-11,16.81-13.95,31.19-5.87,35.89,6.79,4,19.88.12,34.38-9-3.27,14.21-.21,25.57,7.14,25.9,5.92.28,13-6.76,17.81-16.94.73,1.89,33.84-8.78,34.69-7.18,0,0,17.74,40.66,29.36,41.68,9.61.85,30.11-30.78,30.11-30.78,1.94-1,31.69,6,33.74,4.68-3.73,10.4-3.14,18.86,2.18,20.68,6.52,2.23,17.92-6.5,26.11-19.72,5.34,12.8,13.55,20.6,22.48,19.61,10.49-1.24,19.1-14.54,22.69-32.75,4.25.83,10.32-2.54,16.27-8.53.49,11.77,4.74,20.13,11.69,20.73s14.9-6.82,20.82-18.2c.78,2.76,2.36,4.7,4.73,5.36,2.81.84,6.45-.18,10.14-2.62-.77,9.14,1.55,15.78,7.16,17.43,8.16,2.42,20.86-6.74,31.09-21.56.31,8.92,3.4,15.22,8.85,16.06,6.25.94,13.95-5.25,20.1-15.19a4.63,4.63,0,0,0,1.5,2.86c2.18,1.84,6.1,1.92,10.93.53-3.87,4-5.64,8-4.66,11.43,2.94,10,28.41,11.35,56.86,3,2.26-.68,4.46-1.41,6.72-2.14-12.57,15.22-17,30.57-9.91,34.65,3.78,2.18,10.15.58,17.27-3.54-9.81,10.47-14,20.46-9.45,24.92,4.38,4.32,15.63,2.39,28.38-4-5.77,4.81-8.59,9.51-7.12,13,2.2,5.19,13.45,6.14,27.4,2.87l-.12.2c-1.58,5.35,7.21,11.12,20.4,14-8.77,2.1-14.89,5.61-15.57,9.79-.94,6.13,9.88,11.57,25.19,13.36-11.32,6-18.15,13-16.49,18,2.4,7.11,20.79,7.63,41.07,1.12A99.06,99.06,0,0,0-13.49,7.87c-13.34,18.58-17.38,36-8.75,41,10,5.74,32.78-7,51-28.35,2.7-3.18,5.16-6.41,7.38-9.61,1.72,15.56,8.43,26.52,17.09,26.08C64,36.41,73.55,18.53,74.65-3c0-.39,0-.83,0-1.22,16,17.14,35.63,25.72,45.49,19.32,7.74-5,7.4-17.87.18-32.2C134-2.48,149.66,4.72,159.69-.27,172-6.44,171.59-28.85,159.56-52c13.23,9.89,27.37,13.85,34,8.74s3.29-18.24-7.46-30.82c7.83,3.26,14.78,3.77,18.51.65,4.65-4,2.61-12.61-4.32-21.46,17.8,2,32.73-1,35.7-8,3.35-8-10.39-18.34-31.15-23.74,24.13-.41,43.5-7,45.4-16.31,2.16-10.63-19.57-20.68-48.56-22.47l-1.56,0c1.06-.46,2-.87,3-1.37,24.33-11.5,40.23-27.57,35.56-35.94-3.77-6.7-19.59-6.41-38.19-.16C231.8-220.1,251.23-241.75,244.43-253.14Z"/>
            <path class="cls-6" d="M250.2-143c1.16-5.57-4.36-11-14-15.13-6.58,2.29-16.43,3-27.39,1.75,6.93,8.85,9,17.45,4.32,21.42-3.68,3.11-10.74,2.61-18.53-.61,10.7,12.59,14.19,25.56,7.48,30.82-6.54,5.1-20.74,1.15-34-8.79,12,23.24,12.41,45.6.13,51.76-10,5-25.63-2.16-39.36-16.77,7.22,14.32,7.63,27.21-.18,32.2C118.73-40,99.11-48.55,83.18-65.64a9,9,0,0,1-.09,1.23c-1,21.53-10.6,39.36-21.3,39.94C53.07-24.08,46.3-35,44.58-50.56A120.67,120.67,0,0,1,37.21-41C19.05-19.62-3.8-6.91-13.67-12.61-22.36-17.6-18.32-35-5-53.54a98,98,0,0,1-12.09,4.7c-20.33,6.52-38.73,6-41.07-1.12C-59.86-55-53-62-41.72-68c-15.37-1.78-26.2-7.27-25.18-13.31.67-4.22,6.79-7.79,15.62-9.84-13.19-2.9-22-8.62-20.45-14a.5.5,0,0,1,0-.15c-14,3.18-25.2,2.33-27.4-2.92-1.47-3.49,1.42-8.2,7.18-13-12.75,6.39-24,8.27-28.39,4-4.52-4.5-.34-14.44,9.41-24.91-7.05,4.17-13.38,5.66-17.2,3.49-7.1-4-2.61-19.4,9.83-34.66-2.14.78-4.33,1.46-6.65,2.15-28.45,8.37-53.92,7-56.86-3-1-3.44.78-7.38,4.59-11.48-4.82,1.39-8.74,1.36-10.86-.48a4.8,4.8,0,0,1-1.51-2.87c-6.21,9.94-13.85,16.14-20,15.19-5.58-.83-8.6-7.1-8.85-16.06-10.3,14.78-23,24-31.16,21.52-5.55-1.66-7.86-8.31-7.09-17.4-3.82,2.45-7.39,3.47-10.2,2.64-2.38-.72-3.9-2.6-4.79-5.36-5.86,11.37-13.76,18.74-20.77,18.14s-11.26-8.85-11.74-20.71c-5.84,6-12,9.4-16.28,8.52-3.47,18.2-12.07,31.55-22.68,32.8-8.88,1-17.08-6.82-22.42-19.62-8.21,13.23-19.64,22-26.19,19.73-5.25-1.83-5.84-10.29-2.11-20.69-2.11,1.35-31.79-5.68-33.79-4.67,0,0-20.45,31.58-30.07,30.72-11.6-1-29.29-41.64-29.29-41.64-1-1.58-34,9.09-34.75,7.19-4.83,10.14-11.89,17.22-17.8,16.94-7.37-.33-10.36-11.74-7.14-25.89-14.51,9.09-27.53,13-34.39,9-8.08-4.7-5.18-19.07,5.89-35.94-4.25-.68-6.93-5.7-7.35-12.9-9.59,10-19.65,15.59-26.05,13.69s-7.5-10.95-3.71-22.72c-2.86,2-5.65,3.15-8.25,2.94-3.08-.28-5.34-2.36-6.69-5.77-6.35,8.1-13.48,13-19.53,12.44-8.89-.76-12.64-13-10.05-29.2-7.11,7.52-14.57,11.86-19.93,10.67-6.07-1.34-7.84-9.28-5.45-19.93a8.87,8.87,0,0,1-3.47,1.93c-3.29.85-6.71-.47-9.78-3.33.2,4.81-1.38,8.84-4.88,11.4-5.74,4.23-15.46,3.67-26.06-.62,9.78-4,15.77-9.12,15.32-14.19-.83-8.49-19.76-13.48-43.06-11.77,23.7-8.15,39.51-20.62,36.61-29.75-3.39-10.5-30-12.75-59.72-5-.53.14-1,.31-1.54.45.75-.73,1.5-1.47,2.25-2.24,18.22-18.47,25.71-38.49,16.72-44.69-7.13-5-22.61.46-37.86,12.31,22.18-26,30.26-52.29,17.75-60.63-13.43-8.9-45.52,6.12-71.92,33.59,4.64-14.65,2.74-27.43-4.62-29-6.5-1.41-15.15,6.61-20.79,18.59a104,104,0,0,0-1.69-14.65c-4.42-24-15.69-43.23-27.89-50-3.95,5-6.55,13.5-6.47,22.92A102.6,102.6,0,0,0-928.9-449c-7.94,9.13-11.65,27.21-9.42,47.79C-951.78-421-970.09-432.66-981-427.75l-.7.48a94.67,94.67,0,0,0,8.15,21.06c-11.14-11.82-24.45-17.53-32.82-13.13-10.5,5.56-9.28,24.86,2.67,43.08a18.45,18.45,0,0,0,1.54,2.23l-.92-.37c-26.68-8.65-53-7.51-59.41,2.34-5.55,8.58,5.92,21,26.27,29.65-21.91-2.56-41.68,1.5-45,9.58-2.86,6.95,7.52,14.69,24.27,19.1-12.69,5.23-21.15,11.86-20.22,16.9.77,3.93,7.17,5.93,16.33,5.85-18.93,7.1-31.9,17-30.23,23.78s16.9,8.19,35.89,4.29c-3.82,2.15-7.47,4.34-10.87,6.56-1.17.76-2.34,1.57-3.46,2.32-.52.38-1.06.75-1.58,1.12-.88.6-1.7,1.19-2.51,1.78-.53.43-1.12.85-1.65,1.28-.75.53-1.45,1.11-2.15,1.65l-1.58,1.27c-.7.58-1.34,1.11-2,1.69l-1.4,1.25c-.63.58-1.28,1.16-1.86,1.68-.4.42-.81.79-1.21,1.2a24.69,24.69,0,0,0-1.73,1.82c-.35.36-.64.67-1,1-.8.92-1.61,1.85-2.29,2.72l-.23.26c-.64.82-1.26,1.64-1.77,2.45a4.17,4.17,0,0,0-.56.87c-.41.61-.74,1.16-1.08,1.72a8.88,8.88,0,0,1-.44.95c-.29.5-.5,1-.73,1.51a9.27,9.27,0,0,1-.38.94c-.09.49-.26.94-.36,1.39,0,0-.16.64-.21.93,0,0-.08.89-.13,1.33a4,4,0,0,0,0,.78,5,5,0,0,0,.17,1.34l0,.44a9.66,9.66,0,0,0,.87,2c4.65,7.8,23.65,7,46.64-.76-17.19,9.8-27.52,20.64-24.7,27.64,3.55,8.89,27,8.33,53.87-.8-.34.36-.64.67-.92,1-15.68,18.82-21.3,37.42-12.57,41.63,7.07,3.36,21.35-3.71,34.86-16.42a78.89,78.89,0,0,0-1.13,10.76c-1,24.58,8.83,43.35,21.66,41.9,11.33-1.29,21.27-17.55,24.23-38a58.55,58.55,0,0,0,6.71,8.25c12.38,12.56,28.52,18.47,36,13.21,5.39-3.77,4.92-12.14-.15-21.17,14.49,3.84,27.94,2.89,31.87-2.67,2.67-3.83.18-9-5.8-13.79,13.52,2.1,25.54.22,28.28-4.91l.06-.11c9.47,7.53,19.76,10.62,25.7,6.92,3.94-2.45,5.17-7.49,3.9-13.57,6,9.89,14.12,15.42,21.25,13.19,7.33-2.24,11.5-12.19,11.17-24.54,2.84,6,7.13,9.47,12,8.94,9.17-1,17.24-15.67,18.33-33.09,1.28,1.42,2.65,2.79,4,4.2,1.64,1.54,3.32,2.93,5.06,4.32.32.27.56.5.88.77,1.74,1.39,3.48,2.68,5.21,3.83l.25.22c15.3,10.29,31.41,14,39.66,7.92,3.44-2.56,5-6.55,4.89-11.4,3.06,2.85,6.44,4.18,9.65,3.34a9.13,9.13,0,0,0,3.54-1.94c-2.34,10.64-.57,18.59,5.45,19.93,5.36,1.19,12.82-3.1,20-10.68-2.64,16.26,1.11,28.44,10,29.25,6,.47,13.19-4.39,19.56-12.48,1.34,3.4,3.58,5.48,6.66,5.76,2.55.22,5.4-.85,8.19-2.93-3.72,11.72-2.63,20.82,3.77,22.72S-600.57-156-591-165.92c.41,7.16,3,12.13,7.33,12.91-11,16.81-13.95,31.19-5.87,35.89,6.79,4,19.88.12,34.38-9-3.27,14.21-.21,25.57,7.14,25.9,5.92.28,13-6.76,17.81-16.94.73,1.89,33.84-8.78,34.69-7.18,0,0,17.74,40.66,29.36,41.68,9.61.85,30.11-30.78,30.11-30.78,1.94-1,31.69,6,33.74,4.68-3.73,10.4-3.14,18.86,2.18,20.68,6.52,2.23,17.92-6.5,26.11-19.72,5.34,12.8,13.55,20.6,22.48,19.61,10.49-1.24,19.1-14.54,22.69-32.75,4.25.83,10.32-2.54,16.27-8.53.49,11.77,4.74,20.13,11.69,20.73s14.9-6.82,20.82-18.2c.78,2.76,2.36,4.7,4.73,5.36,2.81.84,6.45-.18,10.14-2.62-.77,9.14,1.55,15.78,7.16,17.43,8.16,2.42,20.86-6.74,31.09-21.56.31,8.92,3.4,15.22,8.85,16.06,6.25.94,13.95-5.25,20.1-15.19a4.63,4.63,0,0,0,1.5,2.86c2.18,1.84,6.1,1.92,10.93.53-3.87,4-5.64,8-4.66,11.43,2.94,10,28.41,11.35,56.86,3,2.26-.68,4.46-1.41,6.72-2.14-12.56,15.22-17,30.57-9.91,34.65,3.78,2.18,10.15.58,17.27-3.54-9.81,10.47-14,20.46-9.45,24.92,4.38,4.32,15.63,2.39,28.38-4-5.77,4.81-8.59,9.51-7.12,13,2.2,5.19,13.45,6.14,27.4,2.87l-.12.2c-1.58,5.35,7.21,11.12,20.4,14-8.77,2.1-14.89,5.61-15.57,9.79-.94,6.13,9.88,11.57,25.19,13.36-11.32,6-18.15,13-16.49,18,2.4,7.11,20.79,7.63,41.07,1.12A99.06,99.06,0,0,0-13.49,7.87c-13.34,18.58-17.38,36-8.75,41,10,5.74,32.78-7,51-28.35,2.7-3.18,5.16-6.41,7.38-9.61,1.72,15.56,8.43,26.52,17.09,26.08C64,36.41,73.55,18.53,74.65-3c0-.39,0-.83,0-1.22,16,17.14,35.63,25.72,45.49,19.32,7.74-5,7.4-17.87.18-32.2C134-2.48,149.66,4.72,159.69-.27,172-6.45,171.59-28.85,159.56-52c13.23,9.89,27.37,13.85,34,8.74s3.29-18.24-7.46-30.82c7.83,3.26,14.78,3.77,18.51.65,4.65-4,2.61-12.61-4.32-21.46,17.8,2,32.73-1,35.7-8,3.35-8-10.39-18.34-31.15-23.74C228.93-127.06,248.3-133.7,250.2-143Z"/>
          </g>
        </g>
      </g>
      <g>
        <path class="cls-7" d="M184.79,185.62s-3.75,3.07-5.23,26.14c0,0-6.59.11-6.7.91s6.59,1.93,6.59,1.93,4.54,9.09,6.25,10.46,3,.11-2-7.84c0,0,3.3,1.47,7.28,3.75,0,0,3.18.45-3.64-5.12,0,0,.91-1,6.25.57,0,0,6-1.48-10.68-4.32a44.67,44.67,0,0,1,5.79-23.64C195.47,176.42,184.79,185.62,184.79,185.62Z"/>
        <path class="cls-7" d="M217.88,187.22s-3.12,3.71-.31,26.65c0,0-6.46,1.33-6.42,2.14s6.83.68,6.83.68,6.15,8.09,8.08,9.12,2.92-.44-3.46-7.33c0,0,3.51.84,7.84,2.34,0,0,3.21-.14-4.52-4.36,0,0,.71-1.17,6.25-.59,0,0,5.65-2.57-11.3-2.27a44.71,44.71,0,0,1,1.33-24.31C226.67,176.19,217.88,187.22,217.88,187.22Z"/>
        <g>
          <g>
            <path class="cls-8" d="M132.51,112.09S125.35,101,119.1,99.93s-2.27,5.91,0,7.95c0,0-10.91-5.79-14.43-.91s11.25,10.57,11.25,10.57S102.17,117,102.39,123s8.3,6.14,14.21,5.8c0,0-12,3.29-9.43,8.75s14-1.25,14-1.25-3.64,3.63-.8,5.11,7.61-1.14,9.32-5.91S132.51,112.09,132.51,112.09Z"/>
            <path class="cls-9" d="M131.71,112.2l-.15-.24c-.77-1.17-4.31-6.27-8-7.37-4.2-1.25-3.63,2.84-.34,5.68,0,0-7.84-3.18-10.34.11s7.73,8,7.73,8-9.89,0-9.89,4.43S121.37,127,121.37,127s-7.27,2.38-7.73,7.38,12-1.93,12-1.93-4.54,4-3,6.25,6.47.12,7.27-3.63S131.71,112.2,131.71,112.2Z"/>
            <path class="cls-10" d="M131.15,111.86s-7.28-6.48-4.89.91c0,0-5.46-1.25-4.09,2.5s3.75,4.09,3.75,4.09-5.46.57-6.59,3.87c0,0,.34,3,6,2.27a8.33,8.33,0,0,0-3.52,4.55c-.8,2.95,5.68,1.25,5.68,1.25s-3.86,3.06-1.48,4.31a3.25,3.25,0,0,0,4-.56S123.42,121.29,131.15,111.86Z"/>
          </g>
          <path class="cls-11" d="M271.41,133a68.32,68.32,0,0,1-1,8.27,62.6,62.6,0,0,1-3.65,12.69,60.52,60.52,0,0,1-16.15,22.54c-30.52,27.11-69.61,27-109.16-21.42l-.8-1.42S127.06,135.39,127.06,117a4,4,0,0,1,.08-.79c.42-2.18,2.84-8,17-5.18,13.79,2.73,36.33,7.32,60.35.28q2.84-.83,5.7-1.89h0a83.66,83.66,0,0,0,10.17-4.53c.73-.38,1.47-.78,2.2-1.19,0,0,2.22-.34.51-9S220,68.05,237.18,66.86s25.06,20.28,29.15,31.88A93.46,93.46,0,0,1,271,118.86,81.29,81.29,0,0,1,271.41,133Z"/>
          <path class="cls-12" d="M271.41,133a68.32,68.32,0,0,1-1,8.27c-7.85-.94-10.42-8.41-10.42-8.41s-1.54,3.41-11.08,3.41-10.23-8.35-10.23-8.35-3.58,3.23-12.79,1.53-7.16-10.57-7.16-10.57c-13.09.7-15-3.75-14.32-7.56q2.84-.83,5.7-1.89h0a83.66,83.66,0,0,0,10.17-4.53c.73-.38,1.47-.78,2.2-1.19,0,0,2.22-.34.51-9S220,68.05,237.18,66.86s25.06,20.28,29.15,31.88A93.46,93.46,0,0,1,271,118.86,81.29,81.29,0,0,1,271.41,133Z"/>
          <path class="cls-13" d="M271.87,132.75c-7.83.8-11.39-6.45-11.39-6.45s-2,4.94-11.08,4.6-8.69-8.52-8.69-8.52-5.63,4.77-12.79,2-5.11-9.89-5.11-9.89c-12.33,1.46-13.49-2.06-12.21-5.36h0a82.31,82.31,0,0,0,10.17-4.53c.74-.38,1.47-.78,2.2-1.19,0,0,2.22-.34.52-9s-3.07-26.6,14.15-27.79,25.06,20.29,29.15,31.88a94,94,0,0,1,4.64,20.13A82.26,82.26,0,0,1,271.87,132.75Z"/>
          <path class="cls-14" d="M271,118.86c-5.09,2.58-13.33-1.37-13.33-1.37-9.72,5.45-14.32-1.2-14.32-1.2-12.11,1.88-13.12-6.65-13.12-6.65-7.42.09-9.53-2.42-9.88-4.77.73-.38,1.47-.78,2.2-1.19,0,0,2.22-.34.51-9S220,68.05,237.18,66.86s25.06,20.28,29.15,31.88A93.46,93.46,0,0,1,271,118.86Z"/>
          <path class="cls-15" d="M266.8,153.44A60.48,60.48,0,0,1,250.65,176c-30.52,27.1-69.61,27-109.16-21.43l-.8-1.42s-13.63-18.24-13.63-36.65a4,4,0,0,1,.08-.78c3.24,11.36,16.29,47.9,52.93,61.64C219.31,192.07,252.76,169.44,266.8,153.44Z"/>
          <g>
            <g>
              <g>
                <path class="cls-16" d="M238.43,95.44s-.68,5.11,4.32,9.6a13.47,13.47,0,0,0,10.74,3.41L243.32,95.33Z"/>
                <path class="cls-17" d="M240.93,96.52c.43.42,1.45,5.2,12.7,12.1,0,0-5.79-9.12-5.79-10.06S240.93,96.52,240.93,96.52Z"/>
                <path class="cls-16" d="M238,95.33s5.62-3.58,8.18-3.93,14.83,1.37,17.9,9.21c0,0-21.14.51-26.08-3.75Z"/>
                <ellipse class="cls-17" cx="246.13" cy="92.88" rx="1.16" ry="0.57"/>
              </g>
              <g>
                <g>
                  <ellipse class="cls-18" cx="233.77" cy="85.44" rx="5.64" ry="6.79" transform="translate(-12.61 120.73) rotate(-28.23)"/>
                  <path class="cls-19" d="M238.79,82.74c2.92,5-.64,11.79-6.85,9.41-5.18-1.92-7-10.42-1.6-13.11,3.34-1.5,6.93.78,8.45,3.7Zm-.09.05c-4.47-7.67-13.77-2.69-9.81,5.27,4.45,7.7,13.74,2.7,9.81-5.27Z"/>
                </g>
                <g>
                  <ellipse class="cls-20" cx="232.65" cy="85.55" rx="3.68" ry="4.75" transform="translate(-13.64 113.6) rotate(-26.69)"/>
                  <ellipse class="cls-21" cx="233.77" cy="83.18" rx="1.25" ry="1.61" transform="translate(-12.45 113.85) rotate(-26.69)"/>
                </g>
              </g>
              <g>
                <g>
                  <ellipse class="cls-18" cx="248.61" cy="81.56" rx="5.64" ry="6.79" transform="translate(-9.01 127.28) rotate(-28.23)"/>
                  <path class="cls-19" d="M253.62,78.87c2.92,5-.64,11.78-6.85,9.4-5.18-1.92-7-10.42-1.6-13.11,3.34-1.5,6.93.79,8.45,3.71Zm-.09,0c-4.47-7.67-13.77-2.69-9.81,5.27,4.45,7.71,13.74,2.7,9.81-5.27Z"/>
                </g>
                <g>
                  <ellipse class="cls-20" cx="247.49" cy="81.67" rx="3.68" ry="4.75" transform="translate(-10.32 119.85) rotate(-26.69)"/>
                  <ellipse class="cls-21" cx="248.6" cy="79.3" rx="1.25" ry="1.61" transform="translate(-9.13 120.09) rotate(-26.69)"/>
                </g>
              </g>
              <path class="cls-16" d="M228.78,74.91a4.7,4.7,0,0,1,2.65-1.33.89.89,0,0,1,.77.23,1,1,0,0,1,.15.34,2.09,2.09,0,0,1,.07.93,2,2,0,0,1-.89,1.17c-.43.27-.9.45-1.35.68a6.08,6.08,0,0,0-1.59,1.16,3.16,3.16,0,0,1-1.17.93c-.35.11-1,0-1.08-.44s.32-.94.49-1.24A10,10,0,0,1,228.78,74.91Z"/>
              <path class="cls-16" d="M244.35,71.42a5.14,5.14,0,0,0-3,.85,1,1,0,0,0-.47.71,1,1,0,0,0,.1.37,1.63,1.63,0,0,0,2,1,12,12,0,0,0,1.53-.43,6.74,6.74,0,0,1,2-.23,3.37,3.37,0,0,0,1.55-.12c.36-.17.76-.7.59-1.08s-.88-.49-1.22-.6A10.17,10.17,0,0,0,244.35,71.42Z"/>
            </g>
            <path class="cls-22" d="M233.78,59.93a1.63,1.63,0,0,0,.73-.84,8.73,8.73,0,0,0,.78-2.53c.1-.69.19-1.51.8-1.84a1.86,1.86,0,0,1,.81-.16,2,2,0,0,1,1.26.29,2.22,2.22,0,0,1,.64,1,9.85,9.85,0,0,1,1,4,5.24,5.24,0,0,0,.12,2.56,5.68,5.68,0,0,0,2.48-3.53,1.09,1.09,0,0,1,.29-.61.65.65,0,0,1,.33-.11,1.44,1.44,0,0,1,1.07.45,4.38,4.38,0,0,1,.66,1l.47.86a11.24,11.24,0,0,1,.63,1.31,5.38,5.38,0,0,1-.41,4.58,2.57,2.57,0,0,1-.66.77,2.31,2.31,0,0,1-1.52.32,13.31,13.31,0,0,1-1.55-.32,18.49,18.49,0,0,0-5.46-.08c.12.09-.06.26-.21.3-1.76.41-3.67.26-5.29,1.05a10.1,10.1,0,0,0-1.7,1.14,23.8,23.8,0,0,0-4.57,4.22,9.25,9.25,0,0,1-.93,1.14,27.44,27.44,0,0,1-2.35,1.57,13.16,13.16,0,0,0-2.07,2.38,4.71,4.71,0,0,1-2.48,1.86,4.49,4.49,0,0,1-2.94-.54,5.73,5.73,0,0,1-2.62-2.21,4.58,4.58,0,0,1-.28-3.61,7.2,7.2,0,0,1,2.06-3,4.59,4.59,0,0,0,.9-1c.23-.39.3-.85.5-1.26A3.38,3.38,0,0,1,217,67.4a30.47,30.47,0,0,1,3.31,0c.23,0,.54-.08.57-.32a.49.49,0,0,0-.15-.35A6.13,6.13,0,0,0,218.52,65c-.86-.41-1.8-.62-2.67-1a3.55,3.55,0,0,1-2-1.89,3,3,0,0,1,.87-3.07,6.79,6.79,0,0,1,3-1.52,11.23,11.23,0,0,1,4.15-.44,6.25,6.25,0,0,1,3.77,1.68,5.85,5.85,0,0,0,1.59,1.4,21.68,21.68,0,0,1,.3-3.6,16.45,16.45,0,0,0,.07-2.33,1.08,1.08,0,0,1,.3-.87c.33-.25.8-.05,1.17.16a10.06,10.06,0,0,1,1.36.86,7,7,0,0,1,1.07,1.1A11.25,11.25,0,0,1,233.78,59.93Z"/>
          </g>
          <g>
            <path class="cls-23" d="M222.35,149.37c-.34,4.43-1,25.4-42.79,18.75a50.65,50.65,0,0,1-20.49-9.76,39.34,39.34,0,0,1-11.9-15.81,8.18,8.18,0,0,1-.52-3c.08-2,1.34-4.12,6.82-2.85-.28-.17-5.72-3.49-3.23-6.65a4.13,4.13,0,0,1,5.54-1.25c-.56-.42-3.64-2.87-1.62-4.89,1.28-1.28,6.37.25,12.3,1.56,4.29.94,9,1.77,13.1,1.34,9.72-1,27.62-3.41,35.12,3.92a30.11,30.11,0,0,1,4.37,5.31A20.71,20.71,0,0,1,222.35,149.37Z"/>
            <path class="cls-24" d="M222.35,149.37c-.34,4.43-1,25.4-42.79,18.75a50.65,50.65,0,0,1-20.49-9.76,5.48,5.48,0,0,1,4-2.48c-1.75-.87-3.73-2.07-3.88-4a3.86,3.86,0,0,1,2-3.37,11.14,11.14,0,0,1,3.9-1.24,9.56,9.56,0,0,1-3.17-1.51,3.23,3.23,0,0,1-1.27-3.1c.45-1.92,2.91-2.49,4.89-2.43-2.27-.32-3.43-3.33-2.37-5.36a5.64,5.64,0,0,1,5.9-2.54c-2.14-.56-4.54-3.87-3.29-6.12a2,2,0,0,1,.64-.67c4.29.94,9,1.77,13.1,1.34,9.72-1,27.62-3.41,35.12,3.92a30.11,30.11,0,0,1,4.37,5.31A20.71,20.71,0,0,1,222.35,149.37Z"/>
            <path class="cls-25" d="M222.35,149.37c-.34,4.43-1,25.4-42.79,18.75,0,0-23.7-4.26-32.39-25.57a8.18,8.18,0,0,1-.52-3c12.28,22.82,47.6,29.29,63.08,21.87,12-5.74,10.81-18.8,9.32-25.38A20.71,20.71,0,0,1,222.35,149.37Z"/>
          </g>
        </g>
      </g>
    </g>
  </g>
</svg>
