<svg xmlns="http://www.w3.org/2000/svg" xmlns:xlink="http://www.w3.org/1999/xlink" width="402.35" height="313.41" viewBox="0 0 402.35 313.41">
  <defs>
    <style>
      .cls-1 {
        fill: none;
      }

      .cls-2 {
        isolation: isolate;
      }

      .cls-3 {
        clip-path: url(#clip-path);
      }

      .cls-4 {
        fill: #0c4c29;
      }

      .cls-5 {
        mix-blend-mode: multiply;
        opacity: 0.43;
        fill: url(#linear-gradient);
      }

      .cls-6 {
        fill: #c34804;
        stroke: #7c320d;
      }

      .cls-10, .cls-21, .cls-6, .cls-7 {
        stroke-miterlimit: 10;
      }

      .cls-7 {
        fill: #fcf200;
        stroke: #a89c0b;
      }

      .cls-8 {
        fill: #fec119;
      }

      .cls-9 {
        fill: #f2a905;
      }

      .cls-10 {
        fill: #ff7e2a;
        stroke: #af440e;
      }

      .cls-11 {
        fill: #fb6010;
      }

      .cls-12 {
        fill: #fde664;
      }

      .cls-13 {
        fill: #febe42;
      }

      .cls-14 {
        fill: #ff631e;
      }

      .cls-15 {
        fill: #dc0604;
      }

      .cls-16 {
        fill: #8c0606;
      }

      .cls-17 {
        fill: #f9f2f2;
      }

      .cls-18 {
        fill: #683c3c;
      }

      .cls-19 {
        fill: #30252b;
      }

      .cls-20 {
        fill: #fff;
      }

      .cls-21 {
        fill: #d10409;
        stroke: #a30814;
      }

      .cls-22 {
        fill: #ffe632;
      }

      .cls-23 {
        fill: #ffd713;
      }

      .cls-24 {
        fill: #fd1441;
      }
    </style>
    <clipPath id="clip-path">
      <rect class="cls-1" x="-2670.88" y="326.76" width="1280" height="720"/>
    </clipPath>
    <linearGradient id="linear-gradient" x1="6755.4" y1="-1844.31" x2="6866.16" y2="-1406.08" gradientTransform="matrix(-0.77, 0.07, 0.01, 0.99, 4563.06, 1234.81)" gradientUnits="userSpaceOnUse">
      <stop offset="0" stop-color="#96880c"/>
      <stop offset="0.31" stop-color="#002405"/>
      <stop offset="0.62" stop-color="#000b00"/>
      <stop offset="1" stop-color="#596b00"/>
    </linearGradient>
  </defs>
  <g class="cls-2">
    <g id="Layer_1" data-name="Layer 1">
      <g class="cls-3">
        <g>
          <path class="cls-4" d="M-1558.74,79.74c9.3-15.83,53.89-10.44,100,11.88-14.17-15.53-19.91-31.5-12.78-36.17,6.32-4.22,20.8,2,34.41,13.94a169.61,169.61,0,0,1-7.13-18c-13.09-39.89-7.93-74.61,11.53-77.63,17.72-2.77,41.1,21.86,55,56.4,2.74-28.65,15.75-49.57,30.71-48,.63.11,1.17.27,1.71.38-27.27-36.08-36-71.34-19.16-80.33,17.62-9.43,56.65,13.55,87,51.34a7.72,7.72,0,0,0,1.19,1.4c-1-3.14-1.77-6.46-2.57-9.72-11.15-49.07-.67-90.33,23.5-92.28,18.22-1.42,39.07,20.21,53,52.12l-.07-.38c-2.5-32.34,8.54-58.16,24.66-57.65,9,.23,17.79,8.8,24.11,22,1-4.09,3-7,6.32-8,5.69-1.7,13.69,2.55,21.32,10.35-.43-14.23,4.21-24.91,11.94-25.2,4.13-.17,8.53,2.76,12.3,7.67-12.26-27.77-12.13-51.83,1.45-56.32,10.51-3.37,26.26,5.72,40.79,22.09-2.62-25.3,5.06-45.46,17.77-45.6,7.64-.11,15.38,6.81,21.32,17.7-.74-22,6.49-38.45,18.19-38.8s24.21,15.83,30.47,37.92a82.35,82.35,0,0,1,6.73-15.69c12-21.86,31.13-35.35,42.68-30.17,2.25-16.81,9.67-28.51,19.55-28.34,9.66.21,19.08,11.78,24.56,28.29,2-10.68,7-17.81,13.58-17.69,6.24.11,12.26,6.86,16.31,16.8,5.7-.49,14.1,3.78,22.69,11.08-8.08-16.06-8.94-29.19-.76-32.72s23.59,3.85,38.54,17.55c5.88-8.47,32.73-3.58,59.94,11A160,160,0,0,1-710.16-238c-9.4-16.82-12.32-31.71-7.85-38.94l28.5,3.16A112.67,112.67,0,0,1-667.8-254c-2.12-7.2-2.37-13.29-.63-17.44l31,3.43a121.2,121.2,0,0,1,24.63,24.37c-.07-8.45,1.22-15.66,3.62-21.24l41.09,4.55a116,116,0,0,1,17.89,31.38c-.56-5.56.93-9.54,4.64-10.8,6.81-2.44,19.05,5,29.76,17.4.46-9.34,4-15.7,10.18-16.22,3.59-.32,7.56,1.44,11.49,4.61-2.53-7.29-3.36-13.61-2.46-18.46l44.21,4.83a162.17,162.17,0,0,1,27.66,27.4l.15.14a127.8,127.8,0,0,1-7.3-25.29q43.5,4.77,87,9.52A236.11,236.11,0,0,1-328.08-212c2,3.08,3.73,6.16,5.4,9.29,0,0,0-1.14-.09-1.71a134.89,134.89,0,0,1,.8-28.91q37.8,4.15,75.61,8.27a150.07,150.07,0,0,1,4.18,22,4.13,4.13,0,0,1,1-.88c11.66-6.62,39,6.85,63.44,30.47-7.43-17.26-10.87-33.18-10.3-45.24l61.47,6.71a178.28,178.28,0,0,1,22.12,33.66,176.21,176.21,0,0,1,7.83,17.93c2.41-15,10-25.27,18.66-23.88,9.68,1.54,17.14,17.18,17,35.33,22.16-35,56.25-55,76.48-44.68,18.85,9.63,19,42.24,1.44,75.3,14.41-15.3,31.62-22.69,42.45-17,13.59,7.2,12,32.17-3.45,55.75a24.68,24.68,0,0,1-2,2.88c.64-.27,1.19-.48,1.19-.48,34.51-11.19,68.57-9.72,76.86,3C139.27-63,124.43-47,98.1-35.75c28.35-3.31,53.93,1.93,58.17,12.4,3.68,9-9.73,19-31.41,24.71C141.27,8.12,152.22,16.7,151,23.22c-1,5.09-9.27,7.67-21.12,7.57,24.49,9.18,41.27,22,39.12,30.77s-21.87,10.59-46.44,5.54c36.49,20.3,59.32,44.89,51.88,57.22-6,10.08-30.6,9.05-60.34-1,22.23,12.68,35.6,26.71,32,35.76-4.6,11.5-35,10.78-69.7-1,.44.47.83.88,1.19,1.33,20.28,24.36,27.55,48.42,16.26,53.87-9.14,4.35-27.62-4.8-45.1-21.25a101,101,0,0,1,1.46,13.92c1.26,31.81-11.42,56.09-28,54.22C7.5,258.46-5.36,237.43-9.18,210.91a76.27,76.27,0,0,1-8.68,10.67c-16,16.26-36.91,23.89-46.61,17.09-7-4.87-6.37-15.7.19-27.38-18.75,5-36.15,3.72-41.23-3.46-3.46-5-.23-11.58,7.5-17.84-17.49,2.71-33,.28-36.58-6.36l-.08-.13c-12.25,9.73-25.57,13.74-33.25,8.94-5.1-3.17-6.69-9.68-5.05-17.55-7.77,12.8-18.26,19.94-27.5,17.06-9.47-2.89-14.87-15.76-14.44-31.75-3.68,7.79-9.23,12.25-15.59,11.57-11.87-1.29-22.31-20.28-23.72-42.81-1.65,1.84-3.43,3.6-5.21,5.44-23.2,22-52.75,31.82-66.06,22.07-4.45-3.32-6.43-8.48-6.33-14.75-4,3.68-8.33,5.4-12.49,4.31a11.6,11.6,0,0,1-4.57-2.5c3,13.76.73,24-7.06,25.78-6.93,1.54-16.59-4-25.85-13.81,3.42,21-1.44,36.78-12.92,37.84-7.81.6-17.07-5.68-25.3-16.15-1.74,4.41-4.64,7.09-8.63,7.46-3.29.28-7-1.1-10.6-3.8,4.83,15.16,3.42,26.94-4.86,29.4s-21.39-4.84-33.72-17.66c-.54,9.26-3.93,15.69-9.49,16.7,14.22,21.75,18.05,40.35,7.6,46.43-8.79,5.13-25.73.16-44.48-11.66,4.23,18.38.27,33.07-9.24,33.5-7.66.36-16.79-8.74-23-21.91-.95,2.45-43.78-11.37-44.88-9.3,0,0-23,52.62-38,53.93-12.43,1.1-38.95-39.82-38.95-39.82-2.52-1.29-41,7.79-43.65,6.05,4.82,13.45,4.06,24.4-2.83,26.77-8.44,2.88-23.18-8.41-33.78-25.53-6.91,16.57-17.53,26.66-29.08,25.38-13.58-1.6-24.72-18.81-29.36-42.38-5.5,1.08-13.35-3.28-21-11-.63,15.22-6.13,26-15.13,26.82s-19.27-8.84-26.94-23.56c-1,3.58-3,6.08-6.11,6.94-3.63,1.08-8.34-.24-13.12-3.39,1,11.82-2,20.41-9.26,22.55-10.56,3.13-27-8.72-40.23-27.89-.4,11.53-4.39,19.68-11.45,20.78-8.08,1.21-18-6.81-26-19.66a6.08,6.08,0,0,1-1.94,3.71c-2.83,2.38-7.9,2.48-14.14.67,5,5.24,7.29,10.43,6,14.8-3.81,12.94-36.76,14.68-73.57,3.91-2.93-.88-5.77-1.83-8.69-2.78,16.26,19.69,22,39.55,12.81,44.84-4.88,2.81-13.13.74-22.33-4.58,12.69,13.54,18.08,26.46,12.23,32.24-5.68,5.58-20.23,3.09-36.72-5.18,7.46,6.22,11.1,12.31,9.21,16.83-2.85,6.72-17.4,7.94-35.46,3.71l.16.26c2,6.92-9.32,14.39-26.39,18.08,11.34,2.71,19.26,7.26,20.14,12.66,1.22,7.93-12.78,15-32.58,17.29,14.63,7.7,23.47,16.78,21.32,23.29-3.1,9.21-26.89,9.88-53.13,1.46a128.49,128.49,0,0,1-15.72-6.09c17.26,24,22.48,46.56,11.32,53-12.94,7.43-42.41-9.06-66-36.67-3.5-4.12-6.68-8.3-9.54-12.44-2.24,20.14-10.92,34.31-22.12,33.75-13.92-.69-26.29-23.83-27.72-51.68a13.9,13.9,0,0,0,0-1.58c-20.64,22.18-46.09,33.28-58.85,25-10-6.44-9.57-23.13-.24-41.66-17.68,18.92-37.94,28.23-50.92,21.77-15.88-8-15.39-37,.18-67-17.12,12.8-35.41,17.92-44,11.31-8.68-6.8-4.25-23.59,9.66-39.87-10.14,4.22-19.13,4.87-24,.84-6-5.18-3.39-16.31,5.58-27.77-23,2.66-42.34-1.28-46.18-10.33-4.33-10.4,13.44-23.73,40.3-30.71-31.22-.53-56.28-9.13-58.74-21.11-2.79-13.75,25.32-26.75,62.83-29.07l2-.05c-1.37-.6-2.6-1.12-3.91-1.77-31.48-14.88-52-35.67-46-46.51,4.88-8.66,25.35-8.29,49.42-.2C-1542.41,122.49-1567.53,94.48-1558.74,79.74Z"/>
          <path class="cls-5" d="M-1566.21,222.29c-1.5-7.2,5.64-14.25,18.17-19.57,8.53,3,21.27,3.88,35.44,2.26-9,11.46-11.6,22.58-5.58,27.71,4.76,4,13.89,3.38,24-.78-13.84,16.28-18.35,33.07-9.67,39.87,8.46,6.6,26.83,1.49,43.94-11.37-15.49,30.06-16,59-.17,67,13,6.53,33.16-2.79,50.92-21.7-9.33,18.53-9.86,35.21.25,41.66,12.82,8.22,38.21-2.89,58.82-25a12.6,12.6,0,0,0,.11,1.58c1.35,27.86,13.72,50.93,27.56,51.68,11.28.51,20-13.67,22.27-33.75a155.89,155.89,0,0,0,9.53,12.39c23.51,27.65,53.07,44.09,65.84,36.71,11.24-6.46,6-28.92-11.16-52.95a129,129,0,0,0,15.65,6.08c26.3,8.43,50.1,7.76,53.12-1.46,2.15-6.57-6.68-15.59-21.33-23.3,19.89-2.3,33.9-9.4,32.58-17.22-.87-5.45-8.79-10.07-20.2-12.73,17.05-3.75,28.43-11.16,26.45-18.07a.41.41,0,0,0-.06-.19c18,4.1,32.59,3,35.45-3.78,1.89-4.52-1.84-10.61-9.29-16.77,16.49,8.27,31,10.7,36.72,5.12,5.86-5.83.45-18.7-12.17-32.24,9.13,5.39,17.32,7.32,22.26,4.52,9.18-5.23,3.37-25.1-12.72-44.84,2.76,1,5.6,1.88,8.61,2.78,36.8,10.83,69.75,9.09,73.56-3.85,1.27-4.44-1-9.55-5.94-14.85,6.24,1.8,11.31,1.77,14-.63a6.1,6.1,0,0,0,2-3.7c8,12.85,17.93,20.88,25.92,19.65,7.21-1.08,11.13-9.18,11.45-20.78,13.32,19.12,29.74,31,40.31,27.85,7.18-2.16,10.17-10.76,9.18-22.51,4.94,3.16,9.56,4.48,13.19,3.4,3.08-.92,5-3.36,6.2-6.93,7.58,14.71,17.8,24.25,26.86,23.48s14.58-11.46,15.2-26.81c7.55,7.8,15.56,12.17,21.06,11,4.49,23.55,15.62,40.82,29.35,42.43,11.48,1.34,22.09-8.81,29-25.38,10.61,17.12,25.41,28.42,33.87,25.53,6.79-2.37,7.56-13.32,2.73-26.77,2.74,1.75,41.13-7.35,43.72-6,0,0,26.46,40.85,38.9,39.74,15-1.31,37.9-53.87,37.9-53.87,1.24-2,44,11.76,45,9.31,6.25,13.11,15.38,22.27,23,21.91,9.53-.43,13.4-15.19,9.24-33.5,18.77,11.76,35.62,16.79,44.49,11.66,10.45-6.08,6.7-24.67-7.61-46.5,5.49-.88,8.95-7.37,9.49-16.69,12.41,12.89,25.44,20.18,33.72,17.72s9.7-14.18,4.79-29.4c3.7,2.64,7.31,4.08,10.67,3.8,4-.36,6.91-3,8.66-7.46,8.21,10.48,17.45,16.75,25.26,16.09,11.51-1,16.36-16.81,13-37.77,9.19,9.73,18.85,15.34,25.77,13.8,7.86-1.73,10.15-12,7.05-25.79a11.57,11.57,0,0,0,4.5,2.5c4.25,1.1,8.68-.61,12.65-4.3-.25,6.21,1.79,11.43,6.32,14.75,7.42,5.46,20,4.74,33.71-.81-12.65-5.19-20.4-11.8-19.83-18.36,1.08-11,25.57-17.44,55.72-15.23-30.66-10.54-51.11-26.68-47.36-38.48,4.38-13.6,38.86-16.5,77.25-6.44.69.18,1.32.41,2,.58-1-.94-2-1.89-2.93-2.9-23.57-23.89-33.26-49.79-21.63-57.81,9.23-6.41,29.27.59,49,15.92-28.7-33.66-39.15-67.65-23-78.44,17.39-11.52,58.9,7.92,93.05,43.46-6-19-3.54-35.49,6-37.49,8.42-1.82,19.6,8.55,26.91,24a134,134,0,0,1,2.18-19c5.72-31,20.29-55.92,36.08-64.66,5.11,6.44,8.48,17.46,8.37,29.65a132.25,132.25,0,0,1,20.18-24.78c10.27,11.81,15.08,35.19,12.19,61.83,17.42-25.54,41.1-40.66,55.18-34.3l.9.62A122.35,122.35,0,0,1,17-118.29c14.41-15.3,31.62-22.69,42.45-17,13.59,7.2,12,32.17-3.45,55.75a24.68,24.68,0,0,1-2,2.88c.64-.27,1.19-.48,1.19-.48,34.51-11.19,68.57-9.72,76.86,3C139.27-63,124.43-47,98.1-35.75c28.35-3.31,53.93,1.93,58.17,12.4,3.68,9-9.73,19-31.41,24.71C141.27,8.12,152.22,16.7,151,23.22c-1,5.09-9.27,7.67-21.12,7.57,24.49,9.18,41.27,22,39.12,30.77s-21.88,10.59-46.44,5.54c5,2.79,9.66,5.62,14.06,8.49,1.52,1,3,2,4.48,3l2,1.46c1.13.77,2.2,1.53,3.25,2.29.68.56,1.44,1.11,2.12,1.66,1,.69,1.88,1.43,2.79,2.13.67.55,1.43,1.16,2,1.64.9.76,1.73,1.45,2.55,2.19l1.81,1.63,2.41,2.17c.52.54,1,1,1.57,1.55.75.74,1.57,1.55,2.24,2.35.45.47.82.87,1.27,1.28,1,1.19,2.09,2.4,3,3.52l.29.34c.83,1.06,1.63,2.12,2.3,3.17a5.64,5.64,0,0,1,.72,1.12c.53.79,1,1.51,1.4,2.23a10.34,10.34,0,0,0,.57,1.23c.36.65.64,1.3.94,2a9.41,9.41,0,0,0,.49,1.22c.12.64.34,1.22.47,1.79,0,0,.21.83.26,1.21,0,0,.11,1.15.17,1.72a4.78,4.78,0,0,1,0,1,6.57,6.57,0,0,1-.22,1.74l0,.57a11.71,11.71,0,0,1-1.13,2.57c-6,10.08-30.6,9.05-60.34-1,22.23,12.68,35.6,26.71,32,35.76-4.6,11.5-35,10.78-69.7-1,.44.47.83.88,1.19,1.33,20.28,24.36,27.55,48.42,16.26,53.87-9.14,4.35-27.62-4.8-45.1-21.25a101,101,0,0,1,1.46,13.92c1.26,31.81-11.42,56.09-28,54.22C7.5,258.46-5.36,237.43-9.18,210.91a76.27,76.27,0,0,1-8.68,10.67c-16,16.26-36.91,23.89-46.61,17.09-7-4.87-6.37-15.7.19-27.38-18.75,5-36.15,3.73-41.23-3.46-3.46-5-.23-11.58,7.5-17.84-17.49,2.71-33,.28-36.58-6.36l-.08-.13c-12.25,9.73-25.57,13.74-33.25,8.95-5.1-3.18-6.69-9.69-5.05-17.56-7.77,12.8-18.26,19.94-27.5,17.06-9.47-2.89-14.87-15.76-14.44-31.75-3.68,7.79-9.23,12.25-15.59,11.57-11.87-1.29-22.31-20.28-23.72-42.81-1.65,1.84-3.43,3.6-5.21,5.44-2.12,2-4.3,3.79-6.55,5.59-.41.34-.73.64-1.13,1-2.26,1.8-4.51,3.47-6.75,5l-.33.29c-19.79,13.31-40.63,18.07-51.3,10.25-4.45-3.32-6.43-8.48-6.33-14.75-4,3.68-8.33,5.4-12.49,4.31a11.6,11.6,0,0,1-4.57-2.5c3,13.76.73,24-7.06,25.78-6.93,1.54-16.59-4-25.85-13.81,3.42,21-1.44,36.79-12.92,37.84-7.81.6-17.07-5.68-25.3-16.15-1.74,4.41-4.64,7.09-8.63,7.46-3.29.28-7-1.1-10.6-3.8,4.83,15.16,3.42,26.94-4.86,29.4s-21.39-4.84-33.72-17.66c-.54,9.26-3.93,15.69-9.49,16.7,14.22,21.75,18.05,40.35,7.6,46.43-8.79,5.13-25.73.16-44.48-11.66,4.23,18.38.27,33.07-9.24,33.5-7.66.36-16.79-8.74-23-21.91-.95,2.45-43.78-11.37-44.88-9.3,0,0-23,52.62-38,53.93-12.43,1.1-38.95-39.82-38.95-39.82-2.52-1.29-41,7.79-43.65,6.05,4.82,13.45,4.06,24.4-2.83,26.77-8.44,2.88-23.18-8.41-33.78-25.53-6.91,16.57-17.53,26.66-29.08,25.38-13.58-1.6-24.72-18.81-29.36-42.38-5.5,1.08-13.35-3.28-21-11-.63,15.22-6.13,26-15.13,26.82s-19.27-8.84-26.94-23.56c-1,3.58-3,6.08-6.11,6.94-3.63,1.08-8.34-.24-13.12-3.39,1,11.82-2,20.41-9.26,22.55-10.56,3.13-27-8.72-40.23-27.89-.4,11.53-4.39,19.68-11.45,20.78-8.08,1.21-18-6.81-26-19.66a6.08,6.08,0,0,1-1.94,3.71c-2.83,2.38-7.9,2.48-14.14.67,5,5.24,7.29,10.43,6,14.8-3.81,12.94-36.76,14.68-73.57,3.91-2.93-.88-5.77-1.83-8.69-2.78,16.25,19.69,22,39.55,12.81,44.84-4.88,2.81-13.13.74-22.33-4.58,12.69,13.54,18.08,26.46,12.23,32.24-5.68,5.58-20.23,3.09-36.72-5.18,7.46,6.22,11.1,12.31,9.21,16.83-2.85,6.72-17.4,7.94-35.46,3.71l.16.26c2,6.92-9.32,14.39-26.39,18.08,11.34,2.71,19.26,7.26,20.14,12.66,1.22,7.93-12.78,15-32.58,17.29,14.63,7.7,23.47,16.78,21.32,23.29-3.1,9.21-26.89,9.88-53.13,1.46a128.49,128.49,0,0,1-15.72-6.09c17.26,24,22.48,46.56,11.32,53-12.94,7.43-42.41-9.06-66-36.67-3.5-4.12-6.68-8.3-9.54-12.44-2.24,20.14-10.92,34.31-22.12,33.75-13.92-.69-26.29-23.83-27.72-51.68a13.9,13.9,0,0,0,0-1.58c-20.64,22.18-46.09,33.28-58.85,25-10-6.44-9.57-23.13-.24-41.66-17.68,18.92-37.94,28.23-50.92,21.77-16-8-15.39-37,.18-67-17.12,12.8-35.41,17.92-44,11.31-8.68-6.8-4.25-23.59,9.66-39.87-10.14,4.22-19.13,4.87-24,.84-6-5.18-3.39-16.31,5.58-27.77-23,2.66-42.34-1.28-46.18-10.33-4.33-10.4,13.44-23.73,40.3-30.71C-1538.69,242.87-1563.75,234.27-1566.21,222.29Z"/>
        </g>
      </g>
      <g>
        <path class="cls-6" d="M120.31,203c5.11,9.85,12.19,14.83-3.44,24.41,0,0-7.45,2.24-7.54,3s6.66,1.7,6.66,1.7,4.86,8.93,6.61,10.23,3,0-2.32-7.77c0,0,3.35,1.36,7.41,3.5,0,0,3.19.34-3.82-5,0,0,.87-1,6.27.35,0,0,6-1.69-10.83-3.94,10.27-6.09,16.53-9.67,5-23.83C115.51,194.93,120.31,203,120.31,203Z"/>
        <path class="cls-6" d="M138.94,201.06c7.72,8,15.92,10.73,3.69,24.37,0,0-6.5,4.28-6.35,5.07s6.86-.27,6.86-.27,7.21,7.16,9.26,7.91,2.84-.83-4.44-6.78c0,0,3.59.35,8.09,1.23,0,0,3.16-.58-5.08-3.68,0,0,.53-1.26,6.1-1.46,0,0,5.24-3.32-11.5-.68,8.1-8.77,13.07-14-2.06-24.25C132.06,194.75,138.94,201.06,138.94,201.06Z"/>
        <g>
          <g>
            <path class="cls-7" d="M90.94,114.21s6-11.81,3.71-17.72-6.24,1-6.86,4c0,0-.52-12.34-6.51-12.91s-3.43,15.05-3.43,15.05S71.38,90.5,66.3,93.74,65.2,104,68.48,108.93c0,0-8.93-8.73-12.32-3.72s8.15,11.43,8.15,11.43-5-1.3-4.81,1.9,4.83,6,9.81,5S90.94,114.21,90.94,114.21Z"/>
            <path class="cls-8" d="M90.44,113.58l.13-.26c.62-1.25,3.23-6.89,2.3-10.65-1-4.26-4.29-1.7-5.07,2.58,0,0-1.22-8.38-5.33-8.87s-3,10.69-3,10.69-5-8.53-8.83-6.29,1.78,11.35,1.78,11.35-5.74-5.07-10.28-2.94,7.75,9.42,7.75,9.42-5.73-1.91-6.88.61,3.17,5.65,6.81,4.44S90.44,113.58,90.44,113.58Z"/>
            <path class="cls-9" d="M90.45,112.91s1.91-9.55-3.26-3.75c0,0-1.68-5.34-4.22-2.27s-1.64,5.31-1.64,5.31-3.24-4.42-6.66-3.74c0,0-2.38,1.79,1.08,6.35a8.34,8.34,0,0,0-5.7-.74c-3,.81,1.79,5.53,1.79,5.53s-4.6-1.78-4.47.91a3.26,3.26,0,0,0,2.5,3.15S78.4,111,90.45,112.91Z"/>
          </g>
          <path class="cls-10" d="M205.23,174.66a70.19,70.19,0,0,1-3.55,7.53,62.48,62.48,0,0,1-7.51,10.86,60.51,60.51,0,0,1-22.5,16.21c-37.58,15.94-74.59,3.35-96.61-55.16l-.3-1.6s-7.1-21.63-1.22-39.08a4.21,4.21,0,0,1,.33-.72c1.09-1.93,5.24-6.65,17.72.51,12.2,7,32.09,18.53,57.1,19.53q3,.12,6,0h0a84.37,84.37,0,0,0,11.08-1.05c.82-.13,1.64-.27,2.47-.43,0,0,2.21.39,3.37-8.39s5.58-26.19,22.28-21.82,17.27,27.23,17.45,39.52a94.42,94.42,0,0,1-2,20.55A81.8,81.8,0,0,1,205.23,174.66Z"/>
          <path class="cls-11" d="M205.23,174.66a70.19,70.19,0,0,1-3.55,7.53c-7.14-3.4-7.19-11.3-7.19-11.3s-2.55,2.74-11.59-.3-7-11.18-7-11.18-4.43,1.92-12.61-2.63-3.41-12.31-3.41-12.31c-12.63-3.51-13-8.34-11.16-11.73q3,.12,6,0h0a84.37,84.37,0,0,0,11.08-1.05c.82-.13,1.64-.27,2.47-.43,0,0,2.21.39,3.37-8.39s5.58-26.19,22.28-21.82,17.27,27.23,17.45,39.52a94.42,94.42,0,0,1-2,20.55A81.8,81.8,0,0,1,205.23,174.66Z"/>
          <path class="cls-12" d="M205.73,174.59c-7.67-1.73-8.73-9.74-8.73-9.74s-3.51,4-12,.82-5.52-10.85-5.52-10.85-6.85,2.72-12.76-2.15-1.7-11-1.7-11c-12.14-2.55-12.12-6.26-9.85-9h0a84.21,84.21,0,0,0,11.08-1c.82-.13,1.65-.27,2.47-.43,0,0,2.21.39,3.37-8.39S177.7,96.64,194.4,101s17.28,27.23,17.45,39.52a94.42,94.42,0,0,1-2,20.55A81.8,81.8,0,0,1,205.73,174.59Z"/>
          <path class="cls-13" d="M209.32,161.15c-5.65.82-12.2-5.56-12.2-5.56-11,2.07-13.19-5.7-13.19-5.7-12.07-2.09-10.31-10.49-10.31-10.49-7.06-2.29-8.25-5.34-7.84-7.68.82-.13,1.64-.27,2.47-.43,0,0,2.21.39,3.37-8.39s5.58-26.19,22.28-21.82,17.27,27.23,17.45,39.52A94.42,94.42,0,0,1,209.32,161.15Z"/>
          <path class="cls-14" d="M194.32,192.59a60.51,60.51,0,0,1-22.5,16.21c-37.57,15.94-74.59,3.36-96.61-55.15l-.3-1.6s-7.1-21.64-1.22-39.09a4,4,0,0,1,.33-.71c-.56,11.79.14,50.59,30.48,75.31C137,214,175.91,203.26,194.32,192.59Z"/>
          <g>
            <path class="cls-15" d="M186,128.56s-2.28,4.63,1,10.48a13.43,13.43,0,0,0,9.09,6.66L190.63,130Z"/>
            <path class="cls-16" d="M188,130.39c.27.54-.28,5.39,8.18,15.52,0,0-2.59-10.49-2.29-11.38S188,130.39,188,130.39Z"/>
            <path class="cls-15" d="M185.62,128.33s6.47-1.6,9-1.1,13.61,6,14,14.44c0,0-20.2-6.27-23.52-11.89Z"/>
            <ellipse class="cls-16" cx="194.07" cy="128.6" rx="0.57" ry="1.16" transform="translate(10.24 271.46) rotate(-71.38)"/>
          </g>
          <g>
            <g>
              <ellipse class="cls-17" cx="184.74" cy="117.6" rx="5.64" ry="6.79" transform="translate(-17.04 32.49) rotate(-9.61)"/>
              <path class="cls-18" d="M190.35,116.65c1.13,5.73-4.33,10.95-9.49,6.72-4.3-3.47-3.34-12.11,2.67-12.93,3.64-.36,6.31,3,6.82,6.21Zm-.1,0c-1.78-8.71-12.19-7-11,1.86,1.76,8.72,12.16,6.94,11-1.86Z"/>
            </g>
            <g>
              <ellipse class="cls-19" cx="186.54" cy="118.22" rx="3.68" ry="4.75" transform="translate(-14.75 27.35) rotate(-8.07)"/>
              <ellipse class="cls-20" cx="188.35" cy="116.33" rx="1.25" ry="1.61" transform="translate(-14.46 27.59) rotate(-8.07)"/>
            </g>
          </g>
          <g>
            <g>
              <ellipse class="cls-17" cx="200.94" cy="118.92" rx="5.64" ry="6.79" transform="translate(-17.03 35.21) rotate(-9.61)"/>
              <path class="cls-18" d="M206.55,118c1.13,5.74-4.32,11-9.49,6.73-4.3-3.47-3.34-12.12,2.67-12.93,3.64-.37,6.31,3,6.82,6.2Zm-.1,0c-1.78-8.7-12.19-6.95-11,1.86,1.76,8.72,12.16,6.94,11-1.86Z"/>
            </g>
            <g>
              <ellipse class="cls-19" cx="202.74" cy="119.54" rx="3.68" ry="4.75" transform="translate(-14.77 29.64) rotate(-8.07)"/>
              <ellipse class="cls-20" cx="204.55" cy="117.65" rx="1.25" ry="1.61" transform="translate(-14.49 29.87) rotate(-8.07)"/>
            </g>
          </g>
          <path class="cls-15" d="M183.36,106a4.69,4.69,0,0,1,2.94-.41.82.82,0,0,1,.65.46.9.9,0,0,1,0,.37,2.14,2.14,0,0,1-.23.9,1.88,1.88,0,0,1-1.22.82,14.86,14.86,0,0,1-1.49.22,6.15,6.15,0,0,0-1.88.59,3,3,0,0,1-1.41.5c-.36,0-.9-.33-.88-.75s.61-.79.87-1A9.47,9.47,0,0,1,183.36,106Z"/>
          <path class="cls-15" d="M199.24,107.7a5.13,5.13,0,0,0-3.12-.16,1,1,0,0,0-.68.53.77.77,0,0,0,0,.37,1.83,1.83,0,0,0,.28.89,1.94,1.94,0,0,0,1.32.72c.53.08,1.06,0,1.59.08a6.57,6.57,0,0,1,2,.43,3.44,3.44,0,0,0,1.51.38c.38,0,.94-.42.89-.84s-.67-.74-1-.95A9.78,9.78,0,0,0,199.24,107.7Z"/>
          <path class="cls-21" d="M187.61,92.91a1.62,1.62,0,0,0,.76-.81,8.3,8.3,0,0,0,.89-2.5c.13-.68.26-1.5.89-1.8a1.72,1.72,0,0,1,.81-.12,2,2,0,0,1,1.25.34,2.2,2.2,0,0,1,.59,1,9.9,9.9,0,0,1,.79,4,5.19,5.19,0,0,0,0,2.57,5.66,5.66,0,0,0,2.63-3.41,1,1,0,0,1,.32-.61.7.7,0,0,1,.33-.09,1.37,1.37,0,0,1,1,.5,4.25,4.25,0,0,1,.63,1l.42.87a9.86,9.86,0,0,1,.58,1.34,5.37,5.37,0,0,1-.61,4.55,2.36,2.36,0,0,1-.7.74,2.24,2.24,0,0,1-1.53.26,11.83,11.83,0,0,1-1.53-.39,18.77,18.77,0,0,0-5.45-.31c.11.09-.07.25-.22.28-1.78.34-3.68.11-5.34.82a10.43,10.43,0,0,0-1.74,1.07,24.1,24.1,0,0,0-4.75,4,9.38,9.38,0,0,1-1,1.1c-.71.62-1.65.92-2.42,1.47a13.1,13.1,0,0,0-2.17,2.29,4.74,4.74,0,0,1-2.56,1.74,4.55,4.55,0,0,1-2.92-.66,5.84,5.84,0,0,1-2.52-2.32,4.6,4.6,0,0,1-.12-3.62,7.27,7.27,0,0,1,2.19-3,4.41,4.41,0,0,0,.95-.93c.24-.38.34-.84.55-1.23a3.42,3.42,0,0,1,2.79-1.53c1.1-.09,2.2.13,3.3.15.24,0,.55,0,.59-.28a.58.58,0,0,0-.13-.37,6.28,6.28,0,0,0-2.09-1.81c-.84-.45-1.77-.7-2.62-1.11a3.59,3.59,0,0,1-2-2,3,3,0,0,1,1-3,6.71,6.71,0,0,1,3-1.38,10.86,10.86,0,0,1,4.17-.26,6.27,6.27,0,0,1,3.69,1.84A5.72,5.72,0,0,0,181,92.86a21.38,21.38,0,0,1,.45-3.57,18.14,18.14,0,0,0,.18-2.33,1.1,1.1,0,0,1,.33-.86c.34-.24.81,0,1.16.21a9.49,9.49,0,0,1,1.32.93,6.21,6.21,0,0,1,1,1.14A11.28,11.28,0,0,1,187.61,92.91Z"/>
          <g>
            <path class="cls-22" d="M153.07,174.21c-3,3.25-16.69,19.18-45.12-12.14a50.68,50.68,0,0,1-9.88-20.43,39.17,39.17,0,0,1,.61-19.78,8.14,8.14,0,0,1,1.43-2.62c1.33-1.53,3.63-2.38,7.11,2-.11-.31-2.28-6.3,1.64-7.2a4.11,4.11,0,0,1,5.1,2.48c-.17-.67-1-4.51,1.79-4.82,1.81-.2,4.82,4.17,8.63,8.9,2.76,3.42,5.93,7,9.38,9.25,8.22,5.28,23.68,14.61,25,25a30.09,30.09,0,0,1,.09,6.87A20.73,20.73,0,0,1,153.07,174.21Z"/>
            <path class="cls-23" d="M153.07,174.21c-3,3.25-16.69,19.18-45.12-12.14a50.68,50.68,0,0,1-9.88-20.43,5.54,5.54,0,0,1,4.71.6c-.83-1.77-1.63-4-.52-5.56a3.84,3.84,0,0,1,3.66-1.39,11.4,11.4,0,0,1,3.83,1.47,9.5,9.5,0,0,1-1.53-3.15,3.26,3.26,0,0,1,1-3.22c1.55-1.22,3.83-.12,5.33,1.16-1.57-1.66-.59-4.74,1.51-5.66s4.66,0,6.19,1.71c-1.32-1.77-1.13-5.86,1.27-6.83a2,2,0,0,1,.91-.13c2.76,3.42,5.93,7,9.38,9.25,8.22,5.28,23.68,14.61,25,25a30.09,30.09,0,0,1,.09,6.87A20.73,20.73,0,0,1,153.07,174.21Z"/>
            <path class="cls-24" d="M153.07,174.21c-3,3.25-16.69,19.18-45.12-12.14,0,0-15.82-18.14-9.27-40.21a8.14,8.14,0,0,1,1.43-2.62c-4.69,25.48,18.82,52.63,35.54,56.52,12.95,3,20.19-7.9,23.15-14A20.73,20.73,0,0,1,153.07,174.21Z"/>
          </g>
        </g>
      </g>
    </g>
  </g>
</svg>
