<svg id="Layer_1" data-name="Layer 1" xmlns="http://www.w3.org/2000/svg" width="402.35" height="313.41" viewBox="0 0 402.35 313.41">
  <defs>
    <style>
      .cls-1 {
        fill: #c34804;
        stroke: #7c320d;
      }

      .cls-1, .cls-16, .cls-2, .cls-5 {
        stroke-miterlimit: 10;
      }

      .cls-2 {
        fill: #fcf200;
        stroke: #a89c0b;
      }

      .cls-3 {
        fill: #fec119;
      }

      .cls-4 {
        fill: #f2a905;
      }

      .cls-5 {
        fill: #ff7e2a;
        stroke: #af440e;
      }

      .cls-6 {
        fill: #fb6010;
      }

      .cls-7 {
        fill: #fde664;
      }

      .cls-8 {
        fill: #febe42;
      }

      .cls-9 {
        fill: #ff631e;
      }

      .cls-10 {
        fill: #dc0604;
      }

      .cls-11 {
        fill: #8c0606;
      }

      .cls-12 {
        fill: #f9f2f2;
      }

      .cls-13 {
        fill: #683c3c;
      }

      .cls-14 {
        fill: #30252b;
      }

      .cls-15 {
        fill: #fff;
      }

      .cls-16 {
        fill: #d10409;
        stroke: #a30814;
      }

      .cls-17 {
        fill: #ffe632;
      }

      .cls-18 {
        fill: #ffd713;
      }

      .cls-19 {
        fill: #fd1441;
      }
    </style>
  </defs>
  <g>
    <path class="cls-1" d="M169,182.08s-1.06,4.73,12,23.81c0,0-5.12,4.15-4.72,4.85s6.38-2.54,6.38-2.54,9.19,4.35,11.37,4.38,2.4-1.73-6.44-4.92c0,0,3.5-.87,8-1.53,0,0,2.78-1.6-6-1.78,0,0,.08-1.37,5.27-3.41,0,0,3.84-4.87-11.07,3.18a44.7,44.7,0,0,1-10-22.18C171.76,168.25,169,182.08,169,182.08Z"/>
    <path class="cls-1" d="M191.88,174.13s-.77,4.79,13.44,23c0,0-4.86,4.46-4.42,5.13s6.22-2.93,6.22-2.93,9.43,3.78,11.61,3.67,2.29-1.87-6.73-4.51c0,0,3.44-1.08,7.93-2,0,0,2.68-1.77-6.12-1.41,0,0,0-1.37,5.05-3.72,0,0,3.53-5.11-10.85,3.85a44.67,44.67,0,0,1-11.35-21.53C193.76,160.16,191.88,174.13,191.88,174.13Z"/>
    <g>
      <path class="cls-2" d="M111.57,123.33s-1.53-13.15-6.69-16.82-4.64,4.31-3.5,7.14c0,0-7.25-10-12.56-7.17s5.45,14.45,5.45,14.45-12.1-6.57-14.55-1.06,4.75,9.16,10.2,11.46c0,0-12.26-2.35-12.32,3.7s13.1,5,13.1,5-4.86,1.67-3,4.25,7.34,2.33,11-1.21S111.57,123.33,111.57,123.33Z"/>
      <path class="cls-3" d="M110.8,123.08l0-.28c-.18-1.39-1.11-7.53-4-10.15-3.23-3-4.52.95-2.81,4.95,0,0-5.64-6.31-9.34-4.45s3.44,10.54,3.44,10.54-8.88-4.35-10.83-.37S95,131.8,95,131.8s-7.58-1.06-10.19,3.23,11.67,3.57,11.67,3.57-5.84,1.57-5.41,4.31,5.77,3,8.13-.06S110.8,123.08,110.8,123.08Z"/>
      <path class="cls-4" d="M110.44,122.53s-3.68-9-4.79-1.34c0,0-4.34-3.52-4.77.45s1.57,5.32,1.57,5.32-5.15-1.89-7.62.57c0,0-1,2.8,4.4,4.69a8.36,8.36,0,0,0-5.16,2.53c-2,2.31,4.55,3.63,4.55,3.63s-4.82,1.05-3.23,3.22a3.25,3.25,0,0,0,3.82,1.25S99.35,127.6,110.44,122.53Z"/>
    </g>
    <path class="cls-5" d="M243.44,107.48a69.52,69.52,0,0,1,1.2,8.24,63,63,0,0,1-.27,13.19,60.45,60.45,0,0,1-9.81,25.94c-22.53,34-60.35,44-111,7.34L122.42,161s-17.87-14.12-22.6-31.92a4.16,4.16,0,0,1-.11-.77c-.16-2.22.69-8.45,15.05-9.37,14-.91,37-2.26,58.39-15.23q2.53-1.53,5-3.29h0a85,85,0,0,0,8.66-7c.62-.56,1.22-1.14,1.83-1.72,0,0,2.05-.9-1.83-8.86S177,58,193.38,52.37s29.43,13.17,36.36,23.32A94.53,94.53,0,0,1,239.39,94,80.46,80.46,0,0,1,243.44,107.48Z"/>
    <path class="cls-6" d="M243.44,107.48a69.52,69.52,0,0,1,1.2,8.24c-7.83,1.1-12.24-5.46-12.24-5.46s-.61,3.69-9.83,6.14-12-5.44-12-5.44-2.63,4.05-12,4.77-9.64-8.38-9.64-8.38c-12.47,4-15.45.23-15.79-3.62q2.53-1.53,5-3.29h0a85,85,0,0,0,8.66-7c.62-.56,1.22-1.14,1.83-1.72,0,0,2.05-.9-1.83-8.86S177,58,193.38,52.37s29.43,13.17,36.36,23.32A94.53,94.53,0,0,1,239.39,94,80.46,80.46,0,0,1,243.44,107.48Z"/>
    <path class="cls-7" d="M243.82,107.14c-7.35,2.79-12.66-3.31-12.66-3.31s-.7,5.3-9.52,7.29-10.59-6-10.59-6-4.22,6.06-11.84,5.26-7.48-8.24-7.48-8.24c-11.53,4.58-13.57,1.48-13.17-2h0a83.63,83.63,0,0,0,8.66-7c.62-.56,1.22-1.13,1.83-1.72,0,0,2-.9-1.83-8.86s-9.8-24.91,6.54-30.49,29.43,13.17,36.36,23.32a94.22,94.22,0,0,1,9.65,18.26A80.06,80.06,0,0,1,243.82,107.14Z"/>
    <path class="cls-8" d="M239.39,94c-4.26,3.8-13.23,2.1-13.23,2.1-8,7.77-14.15,2.53-14.15,2.53-11.22,4.92-14.39-3.06-14.39-3.06-7.15,2-9.83.1-10.78-2.07.62-.56,1.22-1.14,1.83-1.72,0,0,2.05-.9-1.83-8.86S177,58,193.38,52.37s29.43,13.17,36.36,23.32A94.53,94.53,0,0,1,239.39,94Z"/>
    <path class="cls-9" d="M244.24,128.45a60.41,60.41,0,0,1-9.81,25.93c-22.53,34-60.34,44-111,7.34l-1.14-1.16s-17.86-14.13-22.59-31.92a4.92,4.92,0,0,1-.12-.78c6,10.15,28.05,42.11,67,46C208.27,178,234.79,147.51,244.24,128.45Z"/>
    <g>
      <path class="cls-10" d="M201.93,79.68s.65,5.11,6.64,8.17a13.46,13.46,0,0,0,11.25.53l-13.2-10.07Z"/>
      <path class="cls-11" d="M204.62,80.08c.52.3,2.74,4.65,15.39,8.43,0,0-7.95-7.32-8.19-8.23S204.62,80.08,204.62,80.08Z"/>
      <path class="cls-10" d="M201.51,79.67s4.52-4.91,6.91-5.89,14.68-2.5,19.66,4.29c0,0-20.3,5.93-26.17,3.08Z"/>
      <ellipse class="cls-11" cx="208.71" cy="75.23" rx="1.16" ry="0.57" transform="translate(-12.32 56.15) rotate(-14.89)"/>
    </g>
    <g>
      <g>
        <ellipse class="cls-12" cx="194.86" cy="71.21" rx="5.64" ry="6.79" transform="translate(3.95 152.4) rotate(-43.11)"/>
        <path class="cls-13" d="M199,67.32c4.11,4.15,2.44,11.52-4.2,10.84-5.5-.52-9.47-8.26-4.92-12.25,2.84-2.31,6.9-1,9.12,1.41Zm-.07.06c-6.29-6.27-14,.94-8.13,7.62,6.28,6.3,14-.93,8.13-7.62Z"/>
      </g>
      <g>
        <ellipse class="cls-14" cx="196.47" cy="71.52" rx="3.68" ry="4.75" transform="translate(2.03 148.39) rotate(-41.57)"/>
        <ellipse class="cls-15" cx="198.67" cy="73.13" rx="1.25" ry="1.61" transform="translate(18.46 184.23) rotate(-51.86)"/>
      </g>
    </g>
    <g>
      <g>
        <ellipse class="cls-12" cx="209.1" cy="63.37" rx="5.64" ry="6.79" transform="translate(13.15 160.02) rotate(-43.11)"/>
        <path class="cls-13" d="M213.25,59.48c4.11,4.15,2.44,11.52-4.2,10.84-5.5-.52-9.47-8.26-4.91-12.25,2.83-2.31,6.89-1,9.11,1.41Zm-.07.06c-6.29-6.27-14,.94-8.13,7.62,6.28,6.3,14-.93,8.13-7.62Z"/>
      </g>
      <g>
        <ellipse class="cls-14" cx="210.28" cy="64.58" rx="3.68" ry="4.75" transform="translate(10.11 155.8) rotate(-41.57)"/>
        <ellipse class="cls-15" cx="211.93" cy="66.68" rx="1.25" ry="1.61" transform="translate(9.14 157.43) rotate(-41.57)"/>
      </g>
    </g>
    <path class="cls-10" d="M187.32,62.32a4.71,4.71,0,0,1,2.22-2,.87.87,0,0,1,.8,0,1,1,0,0,1,.24.29,2.1,2.1,0,0,1,.3.88,1.85,1.85,0,0,1-.56,1.35c-.34.38-.75.67-1.12,1A5.87,5.87,0,0,0,188,65.44a3.09,3.09,0,0,1-.9,1.2c-.31.19-.94.22-1.15-.15s.07-1,.16-1.33A9.88,9.88,0,0,1,187.32,62.32Z"/>
    <path class="cls-10" d="M201.48,54.94a5.21,5.21,0,0,0-2.69,1.6,1,1,0,0,0-.27.81.72.72,0,0,0,.2.32,1.84,1.84,0,0,0,.72.58,1.93,1.93,0,0,0,1.5-.13,15.88,15.88,0,0,0,1.37-.81,6.73,6.73,0,0,1,1.92-.75,3.29,3.29,0,0,0,1.46-.52c.3-.24.56-.87.29-1.19s-1-.25-1.33-.26A9.75,9.75,0,0,0,201.48,54.94Z"/>
    <path class="cls-16" d="M183.63,49a1.58,1.58,0,0,0,.18-1.09,8.5,8.5,0,0,0-.64-2.58c-.27-.64-.61-1.39-.25-2a1.9,1.9,0,0,1,.61-.55,2,2,0,0,1,1.23-.4,2.16,2.16,0,0,1,1.07.55,9.88,9.88,0,0,1,2.87,2.89c.42.76.68,1.68,1.42,2.14a5.73,5.73,0,0,0,.31-4.3,1,1,0,0,1-.07-.68.62.62,0,0,1,.22-.26,1.4,1.4,0,0,1,1.15-.16,3.93,3.93,0,0,1,1.08.5l.84.5a8.83,8.83,0,0,1,1.22.8,5.35,5.35,0,0,1,2,4.13,2.27,2.27,0,0,1-.17,1,2.25,2.25,0,0,1-1.13,1.06,13.3,13.3,0,0,1-1.5.52,18.62,18.62,0,0,0-4.71,2.75c.15,0,.08.25,0,.36-1.29,1.26-3,2.11-4,3.63a9.1,9.1,0,0,0-.87,1.84,23.84,23.84,0,0,0-1.75,6,8.74,8.74,0,0,1-.21,1.45,27.08,27.08,0,0,1-1.2,2.56,12.92,12.92,0,0,0-.55,3.11,4.7,4.7,0,0,1-1.17,2.87,4.59,4.59,0,0,1-2.8,1.06,5.83,5.83,0,0,1-3.38-.55,4.59,4.59,0,0,1-2.1-3,7.15,7.15,0,0,1,.19-3.67,4.58,4.58,0,0,0,.28-1.31c0-.45-.18-.88-.22-1.33A3.39,3.39,0,0,1,173,64.1a32.29,32.29,0,0,1,2.84-1.7c.2-.12.43-.34.33-.56a.53.53,0,0,0-.31-.23,6.37,6.37,0,0,0-2.74-.36c-.95.09-1.86.4-2.8.52a3.58,3.58,0,0,1-2.72-.56,3,3,0,0,1-.84-3.08,6.76,6.76,0,0,1,1.76-2.84,11.41,11.41,0,0,1,3.34-2.52,6.3,6.3,0,0,1,4.09-.5,5.67,5.67,0,0,0,2.09.38,19.8,19.8,0,0,1-1.6-3.23,17.06,17.06,0,0,0-1.14-2,1.14,1.14,0,0,1-.2-.9c.16-.39.67-.46,1.09-.47a10.79,10.79,0,0,1,1.61.05,6.93,6.93,0,0,1,1.49.38A11.37,11.37,0,0,1,183.63,49Z"/>
    <path class="cls-17" d="M194.78,112.47c.17,4.52,2,25.77-44.06,24.54a57.39,57.39,0,0,1-23.39-7.15,40.22,40.22,0,0,1-14.82-14.39,7.74,7.74,0,0,1-.93-2.9c-.16-2,1-4.34,7-3.78-.33-.13-6.62-2.77-4.31-6.28a4.73,4.73,0,0,1,5.84-2c-.65-.35-4.28-2.41-2.35-4.72,1.24-1.46,6.93-.59,13.52,0,4.76.39,10,.61,14.35-.36,10.41-2.31,29.51-7.07,38.53-.66a31.29,31.29,0,0,1,5.38,4.78A19.93,19.93,0,0,1,194.78,112.47Z"/>
    <path class="cls-18" d="M196,115c.4,4.42,3.25,25.21-39,25.67a50.61,50.61,0,0,1-21.83-6.18,5.47,5.47,0,0,1,3.57-3.12c-1.88-.56-4-1.41-4.51-3.31a3.87,3.87,0,0,1,1.4-3.66,11.56,11.56,0,0,1,3.64-1.88,9.53,9.53,0,0,1-3.37-1,3.25,3.25,0,0,1-1.78-2.84c.12-2,2.45-3,4.41-3.22-2.28.07-3.94-2.71-3.23-4.89s3.1-3.48,5.39-3.49c-2.2-.2-5.13-3-4.27-5.49a2.15,2.15,0,0,1,.51-.77c4.39.21,9.2.24,13.14-.87,9.41-2.64,26.66-8,35.28-2a29.55,29.55,0,0,1,5.21,4.5A20.79,20.79,0,0,1,196,115Z"/>
    <path class="cls-19" d="M197.2,118.23c.4,4.42,3.25,25.21-39,25.67,0,0-30-2.59-42.2-22.14a8.08,8.08,0,0,1-1-2.81c15.94,20.43,51.47,26.11,71.84,13.33,11.26-7.07,7.5-20.35,4.92-26.58A20.75,20.75,0,0,1,197.2,118.23Z"/>
  </g>
</svg>
