<svg id="Layer_1" data-name="Layer 1" xmlns="http://www.w3.org/2000/svg" width="243.63" height="218.12" viewBox="0 0 243.63 218.12">
  <defs>
    <style>
      .cls-1 {
        fill: #a5a0a4;
      }

      .cls-2 {
        fill: #999698;
      }

      .cls-3 {
        fill: #878286;
      }

      .cls-4 {
        fill: #6d696d;
      }

      .cls-5 {
        fill: #bcb7bb;
      }
    </style>
  </defs>
  <g>
    <g>
      <path class="cls-1" d="M145.91,112.72c2.15,1.19,3.53,3.37,5.16,5.59,9.24,12.61,21.5-4.32,29.14-12.16A22.64,22.64,0,0,0,175,98a54.62,54.62,0,0,0-18.64-4.26C148.84,93.5,146.58,104.21,145.91,112.72Z"/>
      <path class="cls-1" d="M110.73,102c-1.09-7.14-3.48-14.84-8.56-20.15a16.72,16.72,0,0,0-13-5.16c-8,4.86-18.45,14.81-24.42,22.46a11.47,11.47,0,0,0-2.21,5.06,166.4,166.4,0,0,0,31.19,19.23,57.85,57.85,0,0,0,14.9,5A58.63,58.63,0,0,0,110.73,102Z"/>
      <path class="cls-2" d="M149.69,83.83C132.11,77,113.52,72.22,94.57,74.1a24.08,24.08,0,0,0-5.4,2.59,16.72,16.72,0,0,1,13,5.16c5.08,5.31,7.47,13,8.56,20.15a58.63,58.63,0,0,1-2.1,26.43,29.74,29.74,0,0,0,4.42.38c8.27.05,12.6-4.32,17.64-10.24,3-3.51,6.94-6.93,11.83-6.75a7.48,7.48,0,0,1,3.39.9c.67-8.51,2.93-19.22,10.43-19A54.62,54.62,0,0,1,175,98C168.42,91.2,158,87,149.69,83.83Z"/>
    </g>
    <path class="cls-3" d="M119,127.92a18.16,18.16,0,0,1-6,.89c-6.74,0-13.28-2.6-19.32-5.37a166.4,166.4,0,0,1-31.19-19.23c-.73,4.06.31,8.61,1.55,12.53a63.12,63.12,0,0,0,6.36,14.9c7.16,11.27,19.69,12.11,31.87,13a184,184,0,0,0,19.31.37c-.36-2.9-.76-5.79-1.17-8.68C120.09,133.74,120.18,130.37,119,127.92Z"/>
    <g>
      <path class="cls-2" d="M130.71,126.14c0-2.51,0-5.17.19-7.81l-.21.24c-3.67,4.31-7,7.79-11.69,9.35,1.18,2.45,1.09,5.82,1.46,8.45.41,2.89.81,5.78,1.17,8.68,3.24-.11,6.66-.33,10.16-.68,0-.08,0-.16-.07-.24C130.25,138.47,130.68,131.93,130.71,126.14Z"/>
      <path class="cls-4" d="M180.21,106.15c-6.77,6.94-17.15,21-25.86,15.37-.46,1.6-.91,3.21-1.37,4.82-1.41,4.91-2.57,10-4.11,15A51.89,51.89,0,0,0,166,133.61c4.86-3.57,13.77-9.91,14.9-17.07a1.41,1.41,0,0,0,.27-.63A20.74,20.74,0,0,0,180.21,106.15Z"/>
    </g>
    <g>
      <path class="cls-3" d="M139.64,131.17c0-2.7.45-5.56.2-8.24-.34-3.66-1.8-5-3.86-7.12l-.1,0a1,1,0,0,1-1.32-1.08,26.32,26.32,0,0,0-3.66,3.57c-.18,2.64-.17,5.3-.19,7.81,0,5.79-.46,12.33,1,18,0,.08.05.16.07.24,2.64-.27,5.31-.62,8-1.07C139.09,139.48,139.62,134.62,139.64,131.17Z"/>
      <path class="cls-3" d="M150.86,120.68a37.44,37.44,0,0,1,1.92,6.38c.07-.24.13-.48.2-.72.46-1.61.91-3.22,1.37-4.82a12.81,12.81,0,0,1-3.28-3.21c-2.34-3.2-4.17-6.33-8.55-6.49a11,11,0,0,0-5.85,1.52C143.27,111.27,148,113.66,150.86,120.68Z"/>
      <path class="cls-3" d="M152.78,127.06a37.44,37.44,0,0,0-1.92-6.38c-2.82-7-7.59-9.41-14.19-7.34a17.69,17.69,0,0,0-2.11,1.42,1,1,0,0,0,1.32,1.08l.1,0c2.06,2.13,3.52,3.46,3.86,7.12.25,2.68-.19,5.54-.2,8.24,0,3.45-.55,8.31.12,12.13a91.56,91.56,0,0,0,9.11-2C150.33,136.63,151.46,131.76,152.78,127.06Z"/>
    </g>
    <path class="cls-5" d="M167,115.93c-1.75,1.31-3.41,2.73-5.15,4a7.76,7.76,0,0,1-4.58,1.89.11.11,0,0,1-.11,0,.08.08,0,0,1-.09,0H157a2.57,2.57,0,0,1-1-.21h0s0,0,0,0a5,5,0,0,1-2.18-2.07c-.67-1.08-2.6-6-5.77-8.3a3.83,3.83,0,0,0-1.89-.63,14.28,14.28,0,0,0-3.84.34c-3.72.65-7.05,2.78-9.93,5.15-.7.57-1.95,1.78-3.55,3.13h0a30.21,30.21,0,0,1-8.27,5.47,26.42,26.42,0,0,1-11.19,1.47h0c-.67,0-1.24-.07-1.7-.1-3.58-.32-8-2-12.06-4h-.06c-1.31-.6-2.57-1.24-3.79-1.85-5.41-2.65-9.43-6-11-6.7-2.85-1.15-11.33-4.14-15.26-7.76-2.12-2-1.27-5.59-1.23-5.78,0,0,0,0,0,0h0c-1.37,1.61-2,3.21-1.69,4.84a8,8,0,0,0,3.06,4.33c4.35,3.65,9.94,5.51,13,7.79,1.78,1.35,4,4.61,7,5.64a17.67,17.67,0,0,0,4.83.5h0a18.6,18.6,0,0,1,3.15.19h.05a.11.11,0,0,0,.07,0s.1.07.15.09,0,0,0,0l.63.27a2.92,2.92,0,0,0,.69.12c.64.32,1.3.66,1.88,1,0,0,0,0,0,0v0a4.31,4.31,0,0,1,1.42,1.19c.39.65,2.54,6.89,3.61,9.45.19.53.39,1.07.64,1.62.5,1.11-.22-6.83-.28-8.16a11.15,11.15,0,0,0,1.93.58,20.29,20.29,0,0,0,10.82-.88h0v0h0q1.13-.39,2.22-.84c0,.15.08.29.13.46C118.65,132,121,140,121,140c.4-5,.68-9-.12-11.17,1.87-2.83,5.21-4.87,7.1-6.46.93-.77,1.87-1.7,2.88-2.6l.61-.55a19.21,19.21,0,0,1,4.75-3.23,13.21,13.21,0,0,1,5.61-1.13c3.41.08,6.8,2.64,8.47,5.77a9.78,9.78,0,0,1,.86,2.18c1.11,4.51-.57,10.24-.86,13.58v0h0c2.81-3.29,7.64-9.16,10.67-12.22a14.22,14.22,0,0,1,1.27-1.14h0c4.17-3.55,11.2-7.42,14.27-12.92,0,0,0,0,0,0C177.18,108.93,169,114.28,167,115.93Z"/>
    <path class="cls-4" d="M112.37,145.13c-1-2-6.2-2.22-8.76-3.25-1.56-.62-1.91-2.38-3.47-2.88a28.23,28.23,0,0,0-7.2-.94c-2.27-.18-2.34-1.65-3-2.68-1.53-2.22-3.36-4.8-5.65-4.73a1,1,0,0,0-.58,1.62c1.24,1.3,3.48,5.34,1.62,5.4-.93,0-3.23-1.66-4.06-1.85-2.24-.61-5.95-.9-10.18-6-.26-.31-.52-.64-.79-1-1.32-1.74-2.42-5.68-4.44-7h0a1,1,0,0,0,0,.13l0,.07a.19.19,0,0,0,0,.07c.3.82.59,1.55.87,2.25a41.79,41.79,0,0,0,2.85,6.28l.37.63a7.09,7.09,0,0,0,1.76,2.48,23.8,23.8,0,0,0,5,4.52,13.8,13.8,0,0,0,1.63,1l1,.58c.38.2.74.38,1.07.57a31.44,31.44,0,0,0,8.27,3c3.43.84,20,1.8,23.65,1.7Z"/>
    <path class="cls-5" d="M116.45,73.41a65.8,65.8,0,0,0-15.68,0c-4.64.55-11.06.7-14.6,3.93-2.23,2.06-5.54,5-8.18,7.93,0,0,0,0,0,0,5.15-1.94,6.49-3.79,9.66-5.21,1.63,0,3.22-1.89,5-1.86,3.38,0,6.31,4,8.59,6.13,5.58,5.3,8.8,12.87,9.9,20.55a.72.72,0,0,1,0,.25c0,.22.07.46.1.68,1.66-4.06.87-9.81-.13-14.1-.69-2.92-2-6.66.43-9.12,1.13-1.19,4-2,5.58-2.34,9.94-2.46,27.87,5.09,32.6,3.58C140.1,78.53,127.31,74.75,116.45,73.41Z"/>
  </g>
</svg>
