<svg id="Layer_1" data-name="Layer 1" xmlns="http://www.w3.org/2000/svg" width="243.63" height="218.12" viewBox="0 0 243.63 218.12">
  <defs>
    <style>
      .cls-1 {
        fill: #00ff3c;
      }
    </style>
  </defs>
  <path class="cls-1" d="M189.64,102.83h0A32.62,32.62,0,0,0,182.17,91h0c-7.54-7.79-18.11-12.35-28.35-16.32a107.72,107.72,0,0,0-36.13-11.21,74.27,74.27,0,0,0-9.11-.56,76.45,76.45,0,0,0-9,.53l-1.93.2c-5.39.54-12.76,1.27-18.31,6.33L78.2,71.06c-2.14,2-4.77,4.4-7.16,7A124,124,0,0,0,56.87,93c-.3.38-.58.78-.85,1.18A15.49,15.49,0,0,0,52.38,105c-.43,5.64,1,11,2.17,14.77.54,1.69,1.11,3.42,1.74,5.15a9.18,9.18,0,0,0,.31.88l.11.28.15.4.57,1.47,0,.08A52.21,52.21,0,0,0,61,135.7l.19.33a17,17,0,0,0,3.28,4.61,36.2,36.2,0,0,0,12.2,9.11,40.06,40.06,0,0,0,9.18,3.32l.53.12c4.77,1.17,21.21,2,25.37,2l.94,0c.13,0,.25,0,.37,0l2.49,0h0c2.16,0,4.33,0,6.44-.11h0c3.64-.13,7.28-.37,10.82-.73h0c2.93-.3,5.83-.69,8.62-1.16h0c3.57-.6,7-1.33,10.08-2.18h0a61.78,61.78,0,0,0,20.39-9.31l.47-.35c5.92-4.35,15.65-11.5,18.07-21.66a10.9,10.9,0,0,0,.61-2.44A30.89,30.89,0,0,0,189.64,102.83Zm-8.51,13.08a1.41,1.41,0,0,1-.27.63c-1.14,7.16-10,13.5-14.9,17.07a51.89,51.89,0,0,1-17.09,7.72,91.56,91.56,0,0,1-9.11,2c-2.66.45-5.34.8-8,1.07-3.5.35-6.93.57-10.16.68s-6.47.13-9.26.08h0l0,.05c-3.62.1-20.22-.86-23.65-1.7a31.44,31.44,0,0,1-8.27-3l-.25-.14a25.5,25.5,0,0,1-2.29-1.26c-.4-.24-.8-.49-1.2-.78a24,24,0,0,1-5-4.52A7,7,0,0,1,70,131.31c-.12-.2-.25-.41-.37-.63a41.79,41.79,0,0,1-2.85-6.28l-.6-1.53-.22-.58,0-.14a.19.19,0,0,1,0-.07h0l0-.07,0-.13h0c-.62-1.7-1.19-3.42-1.73-5.14-1.17-3.68-2.14-7.92-1.64-11.79,0,0,0,0,0-.06-.32-1.63.32-3.23,1.69-4.84h0s0,0,0,0h0a10.06,10.06,0,0,1,.59-.86A112.62,112.62,0,0,1,78,85.25h0c2.63-2.92,6-5.87,8.18-7.93,3.54-3.23,10-3.38,14.59-3.93a65.88,65.88,0,0,1,15.69,0c10.84,1.33,23.6,5.11,33.2,10.4l0,0C158,87,168.42,91.2,175,98a22.77,22.77,0,0,1,5.23,8.17A20.87,20.87,0,0,1,181.13,115.91Z"/>
</svg>
